<svg xmlns="http://www.w3.org/2000/svg" width="49" height="21" viewBox="0 0 49 21"><defs><style>.a{fill:#dc000c;}</style></defs><g transform="translate(-866.412 -284)"><path class="a" d="M914.555,286.168A2.093,2.093,0,0,1,913,287H879c-.55,0-.75-.374-.445-.832l.89-1.336A2.093,2.093,0,0,1,881,284h34c.55,0,.75.374.445.832Z" transform="translate(-0.176)"/><path class="a" d="M908.384,295.168a2.081,2.081,0,0,1-1.548.832H873c-.547,0-.746-.374-.443-.832l.886-1.336a2.081,2.081,0,0,1,1.548-.832h33.839c.547,0,.746.374.443.832Z"/><path class="a" d="M902.555,304.168A2.093,2.093,0,0,1,901,305H867c-.55,0-.75-.374-.445-.832l.89-1.336A2.093,2.093,0,0,1,869,302h34c.55,0,.75.374.445.832Z"/></g></svg>