<svg xmlns="http://www.w3.org/2000/svg" width="782.412" height="272.423" viewBox="0 0 782.412 272.423"><defs><style>.a{fill:#e8e8e8;}</style></defs><g transform="translate(-76.945 -23)"><path class="a" d="M288.363,558.166a17.556,17.556,0,0,1-16.048-24.6l12.2-27.741c8.3-23.392,30.124-42.75,53.847-46.986L516.61,442.081a5.246,5.246,0,0,0,2.85-1.288l77.916-68.808a80.854,80.854,0,0,1,53.589-20.268H860.256a61.728,61.728,0,0,1,61.658,61.658v18.311l86.74,20.623a69.469,69.469,0,0,1,44.587,65.167v23.151a17.53,17.53,0,0,1-35.06,0V517.476A34.61,34.61,0,0,0,996.97,485.4l-84.913-20.025a33.674,33.674,0,0,1-25.2-32.4V413.375a26.634,26.634,0,0,0-26.605-26.606H650.965a45.868,45.868,0,0,0-30.374,11.49l-77.923,68.825a40.142,40.142,0,0,1-22.692,9.888l-176.9,16.572c-9.744,1.8-21.549,12.731-25.994,25.228l-12.667,28.908A17.553,17.553,0,0,1,288.363,558.166Z" transform="translate(-193.883 -328.717)"/><path class="a" d="M349.307,490.757A60.063,60.063,0,1,1,409.371,430.7,60.129,60.129,0,0,1,349.307,490.757Zm0-85.074A25.011,25.011,0,1,0,374.318,430.7,25.047,25.047,0,0,0,349.307,405.682Z" transform="translate(-64.008 -195.334)"/><path class="a" d="M400.141,490.757A60.063,60.063,0,1,1,460.2,430.7,60.13,60.13,0,0,1,400.141,490.757Zm0-85.074a25.011,25.011,0,1,0,25,25.018A25.048,25.048,0,0,0,400.141,405.682Z" transform="translate(294.44 -195.334)"/><path class="a" d="M470.617,410.965H328.306a17.526,17.526,0,1,1,0-35.052H470.617a17.526,17.526,0,0,1,0,35.052Z" transform="translate(87.845 -158.076)"/></g></svg>