<svg xmlns="http://www.w3.org/2000/svg" width="147.129" height="147.129" viewBox="0 0 147.129 147.129"><defs><style>.a{fill:#dcba00;}.b,.c{fill:none;}.b{stroke:#dcba00;stroke-linecap:round;stroke-width:8px;}.c{stroke:#fff;}.d{fill:#fff;font-size:11px;font-family:ShueiMGoStd-B, A-OTF Shuei MaruGo Std;}</style></defs><g transform="translate(-1207.436 -119.436)"><path class="a" d="M608.306,356.858a3.362,3.362,0,0,1,0,3.73l-1.151,1.568a4.051,4.051,0,0,0-.289,3.912l.909,1.721a3.356,3.356,0,0,1-.55,3.687l-1.371,1.38a4.053,4.053,0,0,0-.867,3.826l.642,1.838a3.352,3.352,0,0,1-1.095,3.562l-1.562,1.158a4.052,4.052,0,0,0-1.431,3.652l.359,1.914a3.351,3.351,0,0,1-1.615,3.357l-1.718.91a4.046,4.046,0,0,0-1.959,3.4l.07,1.947a3.35,3.35,0,0,1-2.1,3.079l-1.833.643A4.04,4.04,0,0,0,590.3,405.2l-.22,1.935a3.347,3.347,0,0,1-2.53,2.733l-1.909.364a4.034,4.034,0,0,0-2.867,2.669l-.5,1.881a3.343,3.343,0,0,1-2.906,2.326l-1.941.075A4.033,4.033,0,0,0,574.2,419.4l-.777,1.785a3.338,3.338,0,0,1-3.218,1.867l-1.931-.215a4.031,4.031,0,0,0-3.524,1.7l-1.034,1.649a3.334,3.334,0,0,1-3.46,1.363l-1.877-.5a4.028,4.028,0,0,0-3.74,1.155l-1.269,1.475a3.332,3.332,0,0,1-3.625.826l-1.78-.78a4.026,4.026,0,0,0-3.87.58l-1.475,1.268a3.336,3.336,0,0,1-3.709.275l-1.645-1.036a4.017,4.017,0,0,0-3.911,0L531.7,431.85a3.336,3.336,0,0,1-3.709-.275l-1.474-1.268a4.026,4.026,0,0,0-3.87-.581l-1.78.78a3.332,3.332,0,0,1-3.626-.827l-1.269-1.475a4.029,4.029,0,0,0-3.74-1.155l-1.877.5a3.334,3.334,0,0,1-3.46-1.363l-1.034-1.649a4.03,4.03,0,0,0-3.525-1.7l-1.93.215a3.338,3.338,0,0,1-3.219-1.867l-.777-1.785a4.032,4.032,0,0,0-3.231-2.212l-1.941-.076a3.343,3.343,0,0,1-2.906-2.327l-.5-1.881a4.035,4.035,0,0,0-2.868-2.669l-1.908-.364a3.347,3.347,0,0,1-2.53-2.733l-.219-1.935a4.04,4.04,0,0,0-2.441-3.065l-1.834-.643a3.35,3.35,0,0,1-2.1-3.079l.07-1.946a4.047,4.047,0,0,0-1.959-3.4l-1.717-.91a3.351,3.351,0,0,1-1.616-3.358l.359-1.914a4.052,4.052,0,0,0-1.431-3.652l-1.562-1.158a3.351,3.351,0,0,1-1.095-3.562l.642-1.839a4.053,4.053,0,0,0-.868-3.826l-1.371-1.379a3.356,3.356,0,0,1-.55-3.687l.909-1.722a4.05,4.05,0,0,0-.289-3.912l-1.152-1.569a3.362,3.362,0,0,1,0-3.73l1.152-1.568a4.051,4.051,0,0,0,.289-3.912l-.909-1.721a3.356,3.356,0,0,1,.55-3.687l1.371-1.38a4.054,4.054,0,0,0,.867-3.826l-.642-1.838a3.352,3.352,0,0,1,1.095-3.562l1.562-1.158a4.052,4.052,0,0,0,1.431-3.652l-.359-1.914a3.351,3.351,0,0,1,1.615-3.357l1.718-.91a4.046,4.046,0,0,0,1.959-3.4l-.07-1.947a3.35,3.35,0,0,1,2.1-3.079l1.833-.643a4.04,4.04,0,0,0,2.441-3.065l.22-1.935a3.347,3.347,0,0,1,2.53-2.733l1.909-.364a4.034,4.034,0,0,0,2.867-2.669l.5-1.881a3.343,3.343,0,0,1,2.906-2.326l1.941-.076a4.033,4.033,0,0,0,3.231-2.212l.776-1.785a3.338,3.338,0,0,1,3.218-1.867l1.931.215a4.03,4.03,0,0,0,3.524-1.7l1.034-1.649a3.334,3.334,0,0,1,3.46-1.363l1.877.5a4.028,4.028,0,0,0,3.74-1.156l1.269-1.475a3.332,3.332,0,0,1,3.625-.826l1.78.78a4.027,4.027,0,0,0,3.87-.58L528,285.871a3.336,3.336,0,0,1,3.709-.275l1.645,1.036a4.017,4.017,0,0,0,3.911,0l1.645-1.036a3.336,3.336,0,0,1,3.709.275l1.474,1.268a4.026,4.026,0,0,0,3.87.581l1.78-.78a3.332,3.332,0,0,1,3.626.827l1.269,1.475a4.029,4.029,0,0,0,3.74,1.155l1.877-.5a3.334,3.334,0,0,1,3.46,1.363l1.034,1.649a4.03,4.03,0,0,0,3.525,1.7l1.93-.215a3.338,3.338,0,0,1,3.219,1.867l.776,1.785a4.032,4.032,0,0,0,3.231,2.212l1.941.075a3.344,3.344,0,0,1,2.906,2.327l.5,1.881a4.035,4.035,0,0,0,2.868,2.669l1.908.364a3.347,3.347,0,0,1,2.53,2.733l.219,1.935a4.04,4.04,0,0,0,2.441,3.065l1.834.643a3.35,3.35,0,0,1,2.1,3.079l-.07,1.946a4.047,4.047,0,0,0,1.959,3.4l1.717.91a3.351,3.351,0,0,1,1.616,3.358l-.359,1.914a4.052,4.052,0,0,0,1.431,3.652l1.562,1.158a3.351,3.351,0,0,1,1.095,3.562l-.642,1.839a4.053,4.053,0,0,0,.868,3.826l1.371,1.379a3.356,3.356,0,0,1,.55,3.687l-.909,1.722a4.05,4.05,0,0,0,.289,3.912Z" transform="translate(745.694 -165.723)"/><line class="b" x1="15" y1="23" transform="translate(1216.5 145.5)"/><line class="b" y1="23" x2="15" transform="translate(1330.5 145.5)"/><line class="c" x1="15" y1="23" transform="translate(1216.5 145.5)"/><line class="c" y1="23" x2="15" transform="translate(1330.5 145.5)"/><text class="d" transform="translate(1281 151)"><tspan x="-33" y="0">ステッカーを</tspan><tspan x="-44" y="14">掲出しませんか？</tspan></text></g></svg>