<svg xmlns="http://www.w3.org/2000/svg" width="32.942" height="23.427" viewBox="0 0 32.942 23.427">
  <g id="home-icon" transform="translate(-169 -43.832)">
    <path id="パス_1590" data-name="パス 1590" d="M219.058,166.064a11.713,11.713,0,1,0,11.713,11.713A11.713,11.713,0,0,0,219.058,166.064Zm0,17.874a6.16,6.16,0,1,1,6.16-6.16A6.16,6.16,0,0,1,219.058,183.938Z" transform="translate(-28.83 -122.232)" fill="#ff7d00"/>
    <path id="パス_1591" data-name="パス 1591" d="M183.921,166.064a11.713,11.713,0,1,0,11.714,11.713A11.713,11.713,0,0,0,183.921,166.064Zm0,17.874a6.16,6.16,0,1,1,6.16-6.16A6.16,6.16,0,0,1,183.921,183.938Z" transform="translate(-3.208 -122.232)" fill="#c62634"/>
  </g>
</svg>
