<svg xmlns="http://www.w3.org/2000/svg" width="29.534" height="29.527" viewBox="0 0 29.534 29.527"><defs><style>.a{fill:#fff;}</style></defs><path class="a" d="M14.765,9.431A7.57,7.57,0,1,0,22.335,17,7.558,7.558,0,0,0,14.765,9.431Zm0,12.492A4.922,4.922,0,1,1,19.687,17a4.931,4.931,0,0,1-4.922,4.922Zm9.646-12.8a1.766,1.766,0,1,1-1.766-1.766A1.762,1.762,0,0,1,24.411,9.121Zm5.014,1.792A8.738,8.738,0,0,0,27.04,4.727a8.8,8.8,0,0,0-6.187-2.385c-2.438-.138-9.745-.138-12.183,0A8.783,8.783,0,0,0,2.484,4.72,8.767,8.767,0,0,0,.1,10.907C-.04,13.345-.04,20.652.1,23.089a8.738,8.738,0,0,0,2.385,6.187A8.807,8.807,0,0,0,8.67,31.661c2.438.138,9.745.138,12.183,0a8.738,8.738,0,0,0,6.187-2.385,8.8,8.8,0,0,0,2.385-6.187c.138-2.438.138-9.738,0-12.176ZM26.276,25.705a4.983,4.983,0,0,1-2.807,2.807c-1.944.771-6.556.593-8.7.593s-6.767.171-8.7-.593a4.983,4.983,0,0,1-2.807-2.807c-.771-1.944-.593-6.556-.593-8.7s-.171-6.767.593-8.7A4.983,4.983,0,0,1,6.061,5.491C8,4.72,12.617,4.9,14.765,4.9s6.767-.171,8.7.593A4.983,4.983,0,0,1,26.276,8.3c.771,1.944.593,6.556.593,8.7S27.046,23.768,26.276,25.705Z" transform="translate(0.005 -2.238)"/></svg>