<svg xmlns="http://www.w3.org/2000/svg" width="108.051" height="55.427" viewBox="0 0 108.051 55.427"><defs><style>.a{fill:#dc000c;}.b{fill:#585757;}</style></defs><g transform="translate(-177.129 -351.717)"><path class="a" d="M262.038,394.694l-2.6,7.279h25.892l4.061-7.279Z" transform="translate(-47.222 -24.655)"/><path class="a" d="M271.757,362.647a.929.929,0,0,1-.85-1.3l.646-1.469a3.912,3.912,0,0,1,2.851-2.488l9.437-.887a.278.278,0,0,0,.151-.068l4.125-3.643a4.281,4.281,0,0,1,2.837-1.073h11.08a3.268,3.268,0,0,1,3.264,3.264v.969l4.592,1.092a3.678,3.678,0,0,1,2.361,3.45v1.226a.928.928,0,0,1-1.856,0v-1.226a1.832,1.832,0,0,0-1.123-1.7l-4.5-1.06a1.783,1.783,0,0,1-1.334-1.715v-1.038a1.41,1.41,0,0,0-1.409-1.409h-11.08a2.428,2.428,0,0,0-1.608.608l-4.125,3.644a2.125,2.125,0,0,1-1.2.523l-9.365.877a2.139,2.139,0,0,0-1.376,1.336l-.671,1.53A.929.929,0,0,1,271.757,362.647Z" transform="translate(-53.754)"/><g transform="translate(177.129 357.17)"><path class="a" d="M326.806,394.694l-8.6,15.014h-7.427l-2.6,7.279h14.6l12.678-22.293Z" transform="translate(-252.312 -381.825)"/><path class="a" d="M190.475,392.39l2.759-7.735h10.99l2.6-7.279H195.83l1.994-5.59h10.99l2.6-7.279H184.315l-2.6,7.279H190.1l-1.993,5.59h-8.378l-2.6,7.279h8.378l-5.354,15.014H222.4l2.6-7.279Z" transform="translate(-177.129 -364.507)"/><path class="a" d="M390.387,392.39l-4.825-27.883h-8.025l6.109,35.162h10.447l2.6-7.279Z" transform="translate(-292.1 -364.507)"/><path class="a" d="M405.059,364.507h-5.118l1.539,8.855h5.111Z" transform="translate(-304.953 -364.507)"/><path class="a" d="M420.1,364.507h-5.117l1.539,8.855h5.111Z" transform="translate(-313.582 -364.507)"/></g><path class="a" d="M292.424,376.99a3.18,3.18,0,1,1,3.18-3.18A3.183,3.183,0,0,1,292.424,376.99Zm0-4.5a1.324,1.324,0,1,0,1.324,1.325A1.326,1.326,0,0,0,292.424,372.486Z" transform="translate(-64.319 -10.85)"/><path class="a" d="M343.25,376.99a3.18,3.18,0,1,1,3.179-3.18A3.183,3.183,0,0,1,343.25,376.99Zm0-4.5a1.324,1.324,0,1,0,1.324,1.325A1.326,1.326,0,0,0,343.25,372.486Z" transform="translate(-93.477 -10.85)"/><path class="a" d="M319.238,377.769H311.7a.928.928,0,1,1,0-1.856h7.534a.928.928,0,0,1,0,1.856Z" transform="translate(-76.671 -13.881)"/><g transform="translate(204.293 398.772)"><path class="b" d="M253.2,462.47l-3,8.051h-2.1l1.571-4.244-3.284,3.451h-1l-.857-3.451-1.593,4.244h-2.094l3.019-8.051h1.852l1.07,4.658,4.473-4.658Z" transform="translate(-240.846 -462.309)"/><path class="b" d="M279.511,466.922a5.871,5.871,0,0,1,5.872-4.83c2.473,0,3.747,1.461,3.383,3.543a5.87,5.87,0,0,1-5.871,4.83C280.421,470.465,279.146,469,279.511,466.922Zm6.93-1.15a1.417,1.417,0,0,0-1.583-1.794,3.2,3.2,0,0,0-3.021,2.807,1.416,1.416,0,0,0,1.583,1.794A3.2,3.2,0,0,0,286.44,465.772Z" transform="translate(-262.992 -462.092)"/><path class="b" d="M324.43,462.47l-6.457,8.051h-2.243l-.419-8.051h2.335l.234,5.233,4.206-5.233Z" transform="translate(-283.565 -462.309)"/><path class="b" d="M345.119,468.956h-3.428l-1.2,1.565h-2.4l6.572-8.051H346.9l.535,8.051h-2.266Zm-.052-1.679-.084-2.611-2,2.611Z" transform="translate(-296.629 -462.309)"/></g></g></svg>