<svg xmlns="http://www.w3.org/2000/svg" width="49" height="109" viewBox="0 0 49 109"><defs><style>.a{fill:#293137;}.b{fill:#ffa58c;}.c{fill:#b1a9fc;}.d{fill:#392847;}.e{fill:#60e1e1;}.f{fill:#cec6fd;}</style></defs><g transform="translate(-123.834 -378.179)"><path class="a" d="M215.783,636.363l-7.443-2.392c-.367-.118-.811.024-.883.281l-1.139,4.1c-.066.239.224.456.606.454l7.957-.048C216.972,638.746,217.644,636.961,215.783,636.363Z" transform="translate(-48.614 -151.729)"/><path class="b" d="M211.236,595.285l7.306.122c-1.477,4.446-3.266,9.144-5.275,15.514-1.713,5.434-6.874,3.658-5.148-1.817A82.177,82.177,0,0,0,211.236,595.285Z" transform="translate(-49.474 -128.994)"/><path class="c" d="M186.962,552.255l7.306.122a77.679,77.679,0,0,0,3.092-12c.526-3.106,1.549-6.234-.838-8.815-4.139-4.475-14.086-5.63-24.387-9.214a4.483,4.483,0,0,0-5.464,3.1,4.551,4.551,0,0,0,3.1,5.464c5.174,1.8,15.576,4.27,19.189,6.1C187.987,542.859,187.642,547.452,186.962,552.255Zm1.145-15.651c.368.149.352.156,0,0Z" transform="translate(-25.2 -85.636)"/><g transform="translate(123.834 378.179)"><path class="d" d="M129.956,386.034c-.452,2.943,1.9,6.352-.593,8.65-1.179,1.088-3.176,1.556-4.269,2.694-2.387,2.484.724,5.911,1.734,7.709,1.239,2.2-.708,2.663-2.09,4.155s-1.073,3.558.141,5.106c1.886,2.405,7.528,5.166,10.488,5.518,6.738.8,15.031-5.605,14.9-13.259-.049-2.915-1.265-5.87-.322-8.7.594-1.783,2-3.352,2.8-5.09a8.224,8.224,0,0,0-1.19-8.653,9.059,9.059,0,0,0-2.626-1.966,4.151,4.151,0,0,1-2.145-2.445c-.941-1.791-2.635-1.736-5.27-1.365C136.519,379.093,130.573,382.021,129.956,386.034Z" transform="translate(-123.834 -378.179)"/></g><g transform="translate(142.801 399.018)"><path class="e" d="M171.741,429.55a4.859,4.859,0,0,1,2.915,1.983c2.645,3.672,5.121,7.892,7.516,11.972.5.85.99,1.689,1.475,2.508l.156.262.181-.246a45.217,45.217,0,0,0,3.716-5.7l4.325,2.045a24.647,24.647,0,0,1-6.388,10.118,2,2,0,0,1-1.625.518,6.458,6.458,0,0,1-3.862-2.707,62.786,62.786,0,0,1-4.739-8.087,62.087,62.087,0,0,0-4.855-8.252C169.478,432.468,170.669,430.512,171.741,429.55Z" transform="translate(-170.131 -429.547)"/><path class="b" d="M215.976,432.3c.022-.2.038-.381.051-.532a1.97,1.97,0,0,1,.113-.678.315.315,0,0,1,.175-.028c.1,0,.228.009.361.018.241.016.571.039,1,.039a1.469,1.469,0,0,1,1.155.4c.372.414.47,1.163.327,2.5a40.535,40.535,0,0,1-2.028,9.237l-4.325-2.045A28.579,28.579,0,0,0,215.976,432.3Z" transform="translate(-195.238 -430.441)"/></g><path class="e" d="M136.993,466.849c7.97-18.271-.8-41.859,11.284-41.859,3.234,0,5.753,2.387,7.485,4.978a25.628,25.628,0,0,1,2.556,4.768,23.465,23.465,0,0,1,.794,6.406,62.9,62.9,0,0,1-1.463,7.76c-2.009,10.33-.9,9.956-.363,14.858.337,3.065.461,5.169-.56,7.667a2.481,2.481,0,0,1-.531.792c-1.823,1.861-4.866,3.417-11.231,3.417-6.027,0-9.052-.127-9.052-4.219A12.109,12.109,0,0,1,136.993,466.849Z" transform="translate(-7.106 -27.949)"/><g transform="translate(128.479 437.552)"><path class="b" d="M173.375,609.625c-.233,2.388-.394,4.509-2.961,4.509-2.221,0-2.658-2.04-2.423-4.441.283-2.894,1.245-9.263,2.164-15.124l6.355.106A71.546,71.546,0,0,0,173.375,609.625Z" transform="translate(-154.424 -566.124)"/><path class="f" d="M140.813,525.673c6.041,1.806,16.1,4.746,19.245,10.392,2.554,4.588-.218,9.617-2.855,17.96l-6.355-.106c.94-6,1.835-11.471,1.908-12.133.1-.948-8.648-5.771-12.955-6.882a11.425,11.425,0,0,0-1.682-.185C132.653,533.086,135.314,524.03,140.813,525.673Z" transform="translate(-135.117 -525.475)"/></g><g transform="translate(138.999 384.031)"><g transform="translate(0.026)"><g transform="translate(0 3.831)"><path class="b" d="M160.822,402.854a1.048,1.048,0,1,0,2.055.153A1.047,1.047,0,1,0,160.822,402.854Z" transform="translate(-160.818 -401.7)"/></g><g transform="translate(0.95)"><path class="b" d="M169,392.394c1.461,1.617,1.038,3.352.806,6.464-.165,2.208-1.8,3.9-3.632,3.766s-3.2-2.056-3.033-4.263l.233-3.126Z" transform="translate(-163.126 -392.394)"/></g><g transform="translate(0.385 6.288)"><path class="b" d="M162.318,415.913l2.451.183a.646.646,0,0,0,.662-.623l.516-6.9a.647.647,0,0,0-.563-.715l-2.451-.183a.647.647,0,0,0-.663.623l-.515,6.9A.647.647,0,0,0,162.318,415.913Z" transform="translate(-161.753 -407.668)"/></g></g><path class="b" d="M164.766,425.125l-3.174-.511a.662.662,0,0,0-.834.612,1.445,1.445,0,0,0,.279.909c2.424,3.681,2.742,4.007,3.3,4.065a.546.546,0,0,0,.676-.333,22.986,22.986,0,0,0,1.034-2.925,1.2,1.2,0,0,0-.113-.886A1.711,1.711,0,0,0,164.766,425.125Z" transform="translate(-160.755 -411.342)"/></g><path class="b" d="M223.336,427.749c-.312,1.622-1.4,2.776-2.437,2.578s-1.621-1.675-1.31-3.3,1.4-2.777,2.438-2.578S223.647,426.127,223.336,427.749Z" transform="translate(-56.378 -27.441)"/><ellipse class="b" cx="2.574" cy="3.584" rx="2.574" ry="3.584" transform="matrix(0.624, -0.782, 0.782, 0.624, 137.262, 442.775)"/><path class="a" d="M175.916,635.421l-3.61-2.61c-.27-.133-2.791-.31-2.843-.021,0,0-1.663,2.887-.511,5.038a.45.45,0,0,0,.438.318l5.868-.036A1.415,1.415,0,0,0,175.916,635.421Z" transform="translate(-26.346 -150.967)"/><path class="e" d="M150.4,427.116s-3.6,1.363-5.131,3.028l3.786.387Z" transform="translate(-12.627 -29.029)"/><g transform="translate(125.33 400.166)"><path class="e" d="M127.469,456.663c-.037-2.367.832-4.989,1.365-7.261a62.529,62.529,0,0,1,5.252-15.047c2.069-3.906,8-.441,5.928,3.465-2.68,5.058-8.361,18.157-6.935,21.487a26.345,26.345,0,0,0,1.871,3.472l-4.151,3.806A17.344,17.344,0,0,1,127.469,456.663Z" transform="translate(-127.468 -432.641)"/><path class="b" d="M139.709,505.849a47.6,47.6,0,0,0,9.436,11c1.468,1.135.924,2-.269,3.2-1.449,1.449-2.768-.478-4.24-1.615a42.724,42.724,0,0,1-9.078-8.773Z" transform="translate(-132.228 -475.711)"/></g></g></svg>