<svg xmlns="http://www.w3.org/2000/svg" width="54" height="118" viewBox="0 0 54 118"><defs><style>.a{fill:#ff6144;}.b{fill:#ffde9a;}.c{fill:#383872;}.d{fill:#ffa58c;}.e{fill:#664479;}.f{fill:#7f5699;}.g{fill:#293137;}</style></defs><g transform="translate(-329.353 -70.673)"><path class="a" d="M423.155,135.39c-2.423-4.081-10.479,1.177-8.049,5.27,2.664,4.487,5.978,8.817,7.856,13.576l7.67-1.614A67.94,67.94,0,0,0,423.155,135.39Z" transform="translate(-50.375 -36.989)"/><ellipse class="a" cx="11.902" cy="6.526" rx="11.902" ry="6.526" transform="translate(345.664 86.321)"/><g transform="translate(332.148 92.465)"><path class="a" d="M346.449,125.043c-4.04,7.2-7.014,13.428-9,21.487-1.993,8.081-1.419,16.646-1.027,24.917.229,4.846,6.145,4.6,5.914-.278-.36-7.6,1.1-14.6,2.929-22.025,1.84-7.46,6.716-12.69,10.456-19.355,2.385-4.25-6.885-9-9.27-4.746Z" transform="translate(-336.03 -123.38)"/></g><path class="a" d="M359.38,122.1c-2.248,2.783-2.094,4.436-2.094,7.6,0,5.764,5.135,10.93,5.135,16.1,0,6.2-1.356,12.859-1.356,19.158,0,2.654-2.153,4.6,3.17,4.6a12.836,12.836,0,0,0,2.674-.268l-1.945-49.7A20.671,20.671,0,0,0,359.38,122.1Z" transform="translate(-16.44 -28.69)"/><path class="b" d="M382.516,115.911a24.992,24.992,0,0,0-6.191,1.5l1.653,49.7c3.461-.857,4.727-3.6,7.3-4.918a26.83,26.83,0,0,0,5.838-3.855l3.316-39.8A22.336,22.336,0,0,0,382.516,115.911Z" transform="translate(-27.728 -26.489)"/><path class="a" d="M421.223,130.4c0-3.4-2.695-6.205-6.249-8.107l-3.316,39.8c8.755-7.938,1.817-14.356,8.623-28.763A6.926,6.926,0,0,0,421.223,130.4Z" transform="translate(-48.445 -30.235)"/><path class="c" d="M396.629,73.316l-.2,2.752c-.291,4.1-2.979,7.28-5.972,7.067s-5.2-3.741-4.912-7.84l.2-2.752c0-.021.005-.04.007-.061,3.273-1.7,6.984-1.945,10.715-1.751A9.763,9.763,0,0,1,396.629,73.316Z" transform="translate(-33.077)"/><path class="d" d="M387.8,82.372l0-1.256,6.406-4.069a5.822,5.822,0,0,1,1.544,4.026l0,.723a.986.986,0,0,1,.162-.013,1.465,1.465,0,0,1,1.231,1.6,1.412,1.412,0,0,1-1.219,1.567.991.991,0,0,1-.162-.017V85.2a5.667,5.667,0,0,1-1.54,4.044l.018,5.287c.7.524,1.138,1.223.7,1.974a37.769,37.769,0,0,1-2.22,3.514,1.238,1.238,0,0,1-1.991,0,37.767,37.767,0,0,1-2.22-3.514c-.481-.832.106-1.6.938-2.137l-.018-5.129a5.727,5.727,0,0,1-1.605-3.707,1.463,1.463,0,0,1-1.246-1.595A1.412,1.412,0,0,1,387.8,82.372Z" transform="translate(-33.695 -3.705)"/><path class="d" d="M377.975,200.507c-1.947.984-4.1.647-4.8-.751s.3-3.329,2.245-4.313,4.1-.647,4.8.751S379.922,199.523,377.975,200.507Z" transform="translate(-25.645 -72.59)"/><path class="d" d="M333.587,244.668c-2.169.227-4.06-.852-4.223-2.41s1.462-3.005,3.632-3.233,4.06.852,4.223,2.41S335.757,244.441,333.587,244.668Z" transform="translate(0 -98.371)"/><g transform="translate(343.596 127.229)"><path class="e" d="M376.235,207.611a11.658,11.658,0,0,0-4.668,2.027c-3.533,2.774-6.313,3.9-6.313,7.99a5.944,5.944,0,0,0,6.182,6.122c.445,0,29.412-.691,29.412-9.115,0-3.433,4.192-6.684-12.732-7.722-3.881-.238-7.963.7-11.862.7Z" transform="translate(-365.254 -206.874)"/></g><g transform="translate(352.411 129.115)"><path class="f" d="M385.65,218.9c2.542,15.891,7.191,31.175,9.733,47.066a4.406,4.406,0,0,0,5.46,3.445c2.785-.756,2.018-2.827,1.6-5.416-2.542-15.891-3.269-32.314-5.811-48.206-.413-2.581-3.677-4.013-6.021-3.377-2.785.756-5.379,3.9-4.964,6.488Z" transform="translate(-385.607 -212.263)"/></g><g transform="translate(370.293 128.816)"><path class="f" d="M429.017,216.194c.05,16,3.509,31.829,3.559,47.832.019,6.149,6.694,6.272,6.674.111-.05-16,.676-32,.626-48-.019-6.149-10.879-6.106-10.86.056Z" transform="translate(-429.017 -211.549)"/></g><path class="g" d="M418.828,343.076,414.85,340.2c-.3-.147-3.075-.342-3.133-.023,0,0-1.832,3.181-.563,5.552a.5.5,0,0,0,.482.35l6.465-.039A1.559,1.559,0,0,0,418.828,343.076Z" transform="translate(-47.878 -157.406)"/><path class="g" d="M446.813,342.722l-3.978-2.876c-.3-.147-3.075-.342-3.133-.023,0,0-1.833,3.181-.563,5.552a.5.5,0,0,0,.482.35l6.465-.039A1.56,1.56,0,0,0,446.813,342.722Z" transform="translate(-64.347 -157.199)"/><path class="a" d="M411.642,178.591l-7.67,1.614a21.018,21.018,0,0,1,1.325,4.95c-6.625-.265-12.883-.407-19.526-.524-4.869-.086-5.129,5.629-.26,5.715a113.793,113.793,0,0,1,12.59,1.327c3.577.466,7.779,1.427,11.371.566,5.739-1.376,3.3-9.123,2.346-12.972C411.762,179.042,411.7,178.816,411.642,178.591Zm-4.074,6.5.025-.014Z" transform="translate(-31.384 -63.096)"/></g></svg>