<svg xmlns="http://www.w3.org/2000/svg" width="170" height="173.442" viewBox="0 0 170 173.442"><defs><style>.a{fill:#93cef4;}.b{fill:#fccea5;}.c{fill:#c0c0c1;}.d{fill:#723220;}.e{fill:#fff;}.f{fill:#779a6d;}.g{fill:#1a1311;}</style></defs><g transform="translate(0.654 0.02)"><circle class="a" cx="85" cy="85" r="85" transform="translate(-0.654 -0.02)"/><g transform="translate(46.095 25.069)"><path class="b" d="M3904.194,1114.44s5.756,0,1.166,6.72c-1.871,2.739-4.945,1.22-4.945,1.22l-1.471,2.962c-2.768,5.492-12.153,12.535-21.659,9.6-3.425-1.056-6.687-4.407-8.519-7.2l-3.51-10.634a12.726,12.726,0,0,1-.132-1.311,16.6,16.6,0,0,1,.168-3.865s-1.248.828-2.435-2.019c-1.232-2.957-.258-9.671,3.273-8.044,0,0,7.828-30.271,24.786-23.945S3912.239,1092.848,3904.194,1114.44Z" transform="translate(-3837.884 -1063.115)"/><path class="c" d="M3700.366,1668.316s6.639-29.647,9.307-43.839c-1.287-12.548-16.037-5.382-16.037-5.382l-13.795,42.617s-3.815,17.549,6.715,18.007S3699.653,1672.068,3700.366,1668.316Z" transform="translate(-3678.339 -1533.436)"/><path class="c" d="M3751.761,1569.653c-3.815-5.341-23.318-12.981-23.318-12.981l-16.257,50.522-3.613-39.88-11.566-9.161s-13.612,8.4-16.155,13.129c-4.225,7.854-3.372,43.32-3.372,43.32l8.509,12.541,37.1-3.98c6.774.305,35.68-.766,37.512-5.955S3755.576,1574.994,3751.761,1569.653Z" transform="translate(-3676.808 -1480.842)"/><path class="d" d="M3918.288,1054.3c-3.434-1.984-17.914-1.816-23.768,6.272s-5.226,20.558-5.226,20.558,4.944-9.818,8.307-13.175c2.143,5.188,7.121,6.788,11.346,8.048-.505-3.165,0-4.44,0-4.44s.868,5.076,9.719,8.135v-3.2a29.839,29.839,0,0,0,5.341,6.8c3.357,3.123,1.219,12.06,1.219,12.06a25.132,25.132,0,0,0,10.379-16.651c1.679-11.21-7.806-21.762-15-23.441Z" transform="translate(-3861.335 -1042.38)"/><path class="b" d="M3866.22,1979.263a51.945,51.945,0,0,1-10.188.1c-4.133-.567-6.98-1.788-7.99,0s-1.377,3.092-1.056,4.354-.322,3.66.275,5.258a6.556,6.556,0,0,0,2.2,3.018c.781.642.505,1.9,1.561,2.829a5.3,5.3,0,0,0,3.9,1.178c1.194-.168,6.888-1.43,5.281-3.281l.29-.053s5.23-.912,6.5-3.659Z" transform="translate(-3824.405 -1848.173)"/><path class="e" d="M4000.206,1980.945l-3.394.514,1.158,10.962h3.336Z" transform="translate(-3954.997 -1850.368)"/><path class="b" d="M3919.78,1481.448l-2,4.448,7.281,7.225,9.369-5.837v-2.955Z" transform="translate(-3886.16 -1415.325)"/><path class="b" d="M3781.813,1375.878c-1.163-2.133-7.432-10.341-7.432-10.341l1.163-2.65,1.551,1.148a8.655,8.655,0,0,0,1.228,4.151c1.228,1.939,1.814-.9,1.814-.9s-.069-2.068,0-3.555a4.5,4.5,0,0,0-.56-2.456,14.611,14.611,0,0,0-2.068-2.844c-1.465-1.637-1.436-.848-1.436-.848-.129-.323-2.14-3.03-2.14-3.03a2.038,2.038,0,0,0-2.04.34,7.058,7.058,0,0,0-1.773-1.633c-.622-.292-1.587.832-3.038,3.167a43.8,43.8,0,0,0-3.113,6.437c-1.338,1.326-2.315,2.288-2.315,2.288s-2,2.068-.84,3.3,1.228,1.551,1.228,1.551a2.155,2.155,0,0,0,.453,2.327c1.034,1.034,6.269,6.01,6.527,7.368s-.655,5.824-.655,5.824l12.652,2.6C3783.4,1383.4,3782.976,1378.011,3781.813,1375.878Z" transform="translate(-3749.129 -1303.636)"/><path class="e" d="M3821.2,1536.25l-.546,2.956s4.5-1.758,7.083-.6,4.807,4.5,4.807,4.5l2.633,15.171,3.049-15.147-.388-5.565,3-3.772,3.076,5.333-1.282,4.332.584,18.123,9.984-31.026-2.443-3.87-9.918,6.141-5.693-5.581s.494,7.237-.412,9.821l-.905,2.584c-1.757-2.46-3.28-4.686-6.97-4.8A9.239,9.239,0,0,0,3821.2,1536.25Z" transform="translate(-3801.569 -1454.722)"/><path class="f" d="M3935.532,1591.1l-3.627,16.558,1.878,20.73,6.682-19.92-.933-17.367.933-3.81-2.727-5.527-3,3.772Z" transform="translate(-3898.465 -1502.697)"/><g transform="translate(15.667)"><path class="g" d="M3930.164,980.2a.835.835,0,1,0,1.593-.5l-3.172-10.111a.835.835,0,1,0-1.593.5Z" transform="translate(-3909.819 -969.008)"/><path class="g" d="M3858.189,1018.587a.835.835,0,1,0,1.358-.971l-6.083-8.509a.835.835,0,1,0-1.359.971Z" transform="translate(-3844.494 -1003.628)"/><path class="g" d="M3803.691,1075.381a.835.835,0,0,0,.461-1.532l-8.689-5.735a.835.835,0,0,0-.92,1.394l8.689,5.735A.829.829,0,0,0,3803.691,1075.381Z" transform="translate(-3794.167 -1055.206)"/></g><g transform="translate(0 10.088)"><path class="g" d="M4084.838,1274.031a3.556,3.556,0,0,1,4.263,1.487.781.781,0,1,0,1.253-.931,5.114,5.114,0,0,0-6.157-1.98.781.781,0,0,0,.64,1.424Z" transform="translate(-4030.709 -1243.205)"/><path class="g" d="M3977.471,1238.654a3.556,3.556,0,0,1,4.3,1.365.781.781,0,0,0,1.367-.755,5.115,5.115,0,0,0-6.115-2.108.781.781,0,0,0,.445,1.5Z" transform="translate(-3937.277 -1212.402)"/><path class="g" d="M3979.61,1280.092c-.311.933-.052,1.86.434,2.022s1.25-.424,1.56-1.358.052-1.86-.435-2.022S3979.921,1279.158,3979.61,1280.092Z" transform="translate(-3939.896 -1248.833)"/><path class="g" d="M4089.3,1314.748c-.486-.162-1.25.424-1.56,1.358s-.052,1.86.435,2.022,1.249-.424,1.56-1.358S4089.79,1314.91,4089.3,1314.748Z" transform="translate(-4034.077 -1280.199)"/><path class="g" d="M4007.8,1362.2c-.02.042-.073.155-.336.171a1.125,1.125,0,0,1-.9-.375c-.026-.041-.033-.053,0-.121a.781.781,0,1,0-1.363-.762,1.636,1.636,0,0,0,.036,1.713,2.613,2.613,0,0,0,2.166,1.109c.051,0,.1,0,.152,0a1.882,1.882,0,0,0,1.655-1.063.781.781,0,0,0-1.412-.667Z" transform="translate(-3962.108 -1320.254)"/><path class="g" d="M3748.524,1125.455c-3.9-5.467-22.864-12.939-23.668-13.254a.779.779,0,0,0-.185-.047l-1.887-2.911c5.291-1.923,9.606-5.931,11.439-9.567.447-.888.831-1.659,1.162-2.331a5.368,5.368,0,0,0,1.51.221,4.313,4.313,0,0,0,3.693-1.984c1.807-2.646,2.334-4.723,1.569-6.174a3.16,3.16,0,0,0-1.73-1.446,25.633,25.633,0,0,0,7.371-14.416c1.73-11.556-8.052-22.507-15.528-24.3l-2.217-.924c-4.062-2.277-18.855-1.621-24.745,6.516-5.012,6.924-5.411,16.761-5.4,20a2.619,2.619,0,0,0-2.091.768c-1.8,1.734-2.108,6.176-1.1,8.6a3.978,3.978,0,0,0,2.176,2.531,1.916,1.916,0,0,0,.226.053c-.052.394-.1.791-.131,1.182l-.309-.418a.78.78,0,0,0-.278-.233,2.708,2.708,0,0,0-2.123,0,5.778,5.778,0,0,0-1.707-1.3c-1.224-.574-2.362.772-4.033,3.461a34.5,34.5,0,0,0-3.17,6.463c-1.233,1.221-2.125,2.1-2.156,2.13-.938.968-2.171,2.979-.846,4.377a11.062,11.062,0,0,1,.943,1.1,2.874,2.874,0,0,0,.752,2.8c.127.127.316.312.551.542,4.572,4.479,5.657,5.964,5.762,6.42a3.3,3.3,0,0,1,.032.642c-2.119,1.328-13.693,8.723-16.116,13.225-4.187,7.781-3.53,40.85-3.468,43.576-.146,3.462.21,7.775,2.363,10.569a7.309,7.309,0,0,0,5.749,2.85c.3.013.6.02.891.02,7.7,0,11.189-4.517,12.772-8.671a6.555,6.555,0,0,0,.313,2.373,7.314,7.314,0,0,0,2.44,3.348,1.75,1.75,0,0,1,.394.83,3.934,3.934,0,0,0,1.148,1.983,6.158,6.158,0,0,0,3.869,1.408,4.7,4.7,0,0,0,.658-.045c.053-.008,5.371-.811,6.136-2.856a1.56,1.56,0,0,0,.044-.957,17.413,17.413,0,0,0,5.448-2.413.78.78,0,0,0,.712.462h2.709a.781.781,0,0,0,.711.554c.379.017,1.074.029,2.021.029,8.068,0,34.268-.852,36.262-6.5C3759.359,1168.355,3752.424,1130.914,3748.524,1125.455Zm-20.683-10.33-.935,13.492-2.976.6a.781.781,0,0,0-.326,1.382l3.1,2.413-15.777,24.863,14.129-43.906C3725.681,1114.218,3726.649,1114.616,3727.841,1115.125Zm-34.64,4.295a7.183,7.183,0,0,1,7.168-.72c2.877,1.408,3.7,2.443,3.921,2.828l-.919,1.813a6.916,6.916,0,0,0-2.489-2.354c-2.362-1.316-5.32-1.2-7.836-.7Zm8.943-16.879a1.428,1.428,0,0,0,1.293.551,20.5,20.5,0,0,0,1.293,1.765l-.282.847C3703.722,1104.682,3702.911,1103.574,3702.145,1102.541Zm9.8,14.469,2.251,4.651-.789,2.959h-3.169l-.445-4.478a.775.775,0,0,0-.067-.246Zm-6.47,6.489a.777.777,0,0,0-.2-.458l.561-1.106a16.322,16.322,0,0,0,.874-2.076l.724,1.253a.781.781,0,0,0,.625.388l.051,0a.777.777,0,0,0,.248-.041l.388,3.9-2.113,10.884Zm1.661,18.335,3.039-15.652h3.076l.563,17.615-5.073,15.763Zm8.1-2.453-.444-13.89.933-3.5,7.469-7.341Zm-7.036-20.061-.914-1.58a17.236,17.236,0,0,0,.221-5.714l3.555,3.572Zm-3.694,10.776,2.317,25.578-4.452-15.033C3703.172,1136.815,3703.912,1133.177,3704.508,1130.1Zm10.749-9.834-2.166-4.475,8.273-5.862,1.717,2.649Zm-3.069-5.749-5.621-5.648c-.22-.388-.571-.931-1-1.567l.372-1.116a13.837,13.837,0,0,0,5.7,3.493,16.3,16.3,0,0,0,4.822.723c.554,0,1.1-.028,1.65-.081Zm-5.617-58.759c5.622-7.767,19.712-7.806,22.745-6.053a.725.725,0,0,0,.091.045l2.32.967a.811.811,0,0,0,.123.04c6.918,1.615,16.015,11.8,14.4,22.564a24.553,24.553,0,0,1-8.469,14.924c.442-2.954.808-8.34-1.824-10.789a29.345,29.345,0,0,1-5.186-6.6.781.781,0,0,0-1.467.371v2.078c-7.28-2.86-8.162-7.109-8.169-7.147a.781.781,0,0,0-1.5-.156,8.388,8.388,0,0,0-.2,3.631c-3.676-1.133-7.838-2.753-9.7-7.251a.781.781,0,0,0-1.273-.254c-2.276,2.271-5.184,7.279-6.93,10.485C3701.762,1068.445,3702.726,1061.067,3706.571,1055.754Zm-6.086,34a34.229,34.229,0,0,1,.985-7.039.781.781,0,0,0-1.516-.373c-.024.1-.324,1.331-.6,2.892a.4.4,0,0,1-.05-.016c-.171-.07-.626-.368-1.149-1.623-.782-1.877-.559-5.618.741-6.871a1.176,1.176,0,0,1,1.484-.163l.027.011.026.01a.747.747,0,0,0,.106.032l.006,0,.014,0a.774.774,0,0,0,.1.013l.022,0a.8.8,0,0,0,.1,0l.041,0a.787.787,0,0,0,.089-.019l.043-.014c.021-.007.043-.015.064-.025l.05-.024c.022-.012.044-.024.066-.038l.032-.021a.826.826,0,0,0,.076-.063l.022-.022a.773.773,0,0,0,.069-.079l.007-.009a.756.756,0,0,0,.058-.094l.008-.013c.045-.09,4.216-8.34,7.4-12.138,2.558,4.792,7.589,6.292,11.331,7.408a.781.781,0,0,0,.994-.871c-.079-.492-.131-.934-.165-1.329,1.328,1.83,3.9,4.173,8.858,5.885a.781.781,0,0,0,1.036-.738v-.507a29.841,29.841,0,0,0,4.029,4.677c2.476,2.3,1.555,8.943.99,11.307a.781.781,0,0,0,1.174.844,18,18,0,0,0,2-1.517,2.249,2.249,0,0,1,1.72.916c.457.874-.069,2.494-1.479,4.56a2.875,2.875,0,0,1-3.216,1.214c1.066-2.217,1.278-2.812,1.3-2.892a.781.781,0,0,0-1.479-.5c-.012.035-.259.723-1.608,3.49v0l0,0c-.39.8-.872,1.771-1.467,2.953-2.442,4.846-11.458,12.069-20.731,9.209a13.72,13.72,0,0,1-7.356-5.954.787.787,0,0,0-.117-.139,4.8,4.8,0,0,0,.4-1.189.773.773,0,0,0,.015-.184c0-.02-.067-2.056,0-3.495a5.375,5.375,0,0,0-.658-2.87,15.684,15.684,0,0,0-2.168-2.983,3.275,3.275,0,0,0-1.529-1.025c-.052-.08-.11-.169-.178-.269C3700.5,1089.959,3700.489,1089.85,3700.486,1089.756Zm-8.619.543c1.357-2.184,1.941-2.7,2.15-2.818a4.115,4.115,0,0,1,.97.738c-.057.059-.113.12-.17.185-.58.663-2.481,2.586-4.44,4.544C3690.788,1092.137,3691.282,1091.239,3691.867,1090.3Zm-4.161,15.465c-.229-.225-.415-.406-.539-.53a1.352,1.352,0,0,1-.292-1.454.779.779,0,0,0,.053-.473c-.03-.149-.108-.544-1.427-1.935-.528-.558.542-1.912.821-2.2.339-.333,8.309-8.181,9.67-9.737a2.881,2.881,0,0,1,.5-.463c.015-.009.03-.018.044-.028l.01-.007a1.378,1.378,0,0,1,1.021-.259c.476.644.967,1.319,1.334,1.837a2.669,2.669,0,0,0-.463.291l-5.09,2.545a.781.781,0,0,0,.7,1.4l5.17-2.585a.913.913,0,0,0,.174-.119.969.969,0,0,1,.3-.178.77.77,0,0,0,.142.013.794.794,0,0,0,.112-.008.768.768,0,0,0,.175-.047h.01a1.625,1.625,0,0,1,.915.591,14.156,14.156,0,0,1,1.952,2.672.776.776,0,0,0,.042.074,3.758,3.758,0,0,1,.436,2c-.058,1.329-.012,3.076,0,3.514a3.577,3.577,0,0,1-.258.726c-.033-.044-.071-.1-.113-.165A7.932,7.932,0,0,1,3702,1097.5a.78.78,0,0,0-.316-.627l-1.551-1.148a.78.78,0,0,0-1.179.314l-1.164,2.65a.782.782,0,0,0,.095.788c.05.065,3.987,5.224,6.151,8.357a.739.739,0,0,0,.045.065c.53.769.95,1.412,1.171,1.818.986,1.808,1.347,6.156-.234,10.22a13.92,13.92,0,0,0-3.964-2.636,8.371,8.371,0,0,0-7.485.111,17.053,17.053,0,0,0,.339-4.4C3693.713,1111.976,3691.974,1109.945,3687.706,1105.764Zm14.062-3.732c-1.023-1.376-1.921-2.561-2.361-3.14l.585-1.333.468.346A9.407,9.407,0,0,0,3701.768,1102.032Zm-24.1,25.875c1.959-3.641,11.1-9.765,14.552-11.992-.14,1.02-.334,2.111-.5,2.906,0,0,0,.009,0,.013l0,.007-.329,1.855a24.118,24.118,0,0,0-3.681,1.36.78.78,0,0,0-.4.462l-12.985,40.115C3674.349,1151.716,3674.829,1133.181,3677.667,1127.907Zm16.346,43.926c-.974,5.129-4.017,11.157-13.01,10.769a5.742,5.742,0,0,1-4.578-2.241c-3.458-4.485-1.552-14.121-1.415-14.785l13.676-42.25c1.418-.625,7.594-3.116,11.439-.972,1.794,1,2.862,2.937,3.172,5.754-2.649,14.062-9.214,43.4-9.28,43.7C3694.016,1171.816,3694.014,1171.824,3694.013,1171.833Zm9.537,9.538a.781.781,0,0,0,.128,1.551.789.789,0,0,0,.13-.011c.675-.113,2.362-.416,4.285-.905-.146.6-2.958,1.583-4.891,1.856a4.539,4.539,0,0,1-3.279-.992,2.5,2.5,0,0,1-.686-1.272,3.016,3.016,0,0,0-.894-1.573,5.749,5.749,0,0,1-1.968-2.688,7.8,7.8,0,0,1-.172-2.839,8.3,8.3,0,0,0-.078-2.339c-.255-1,.029-2.1.979-3.778.457-.809,1.781-.6,4.276-.115.871.168,1.859.358,2.927.5a48.842,48.842,0,0,0,9.6-.018l.886,8.38a.769.769,0,0,0-.117.181C3713.919,1178.949,3707.714,1180.671,3703.55,1181.37Zm12.914-3.289-1.006-9.521,1.841-.279.939,9.8Zm39.529-4.879c-1.458,4.132-26.639,5.748-36.054,5.461l-1.049-12.831,21.932-3.377a.781.781,0,1,0-.238-1.543l-22.65,3.488a.781.781,0,0,0-.659.835l.119,1.454-2.886.438a51.267,51.267,0,0,1-9.986.1c-1.027-.141-1.993-.327-2.845-.491-2.024-.39-3.733-.718-4.9-.126,1.217-5.508,3.149-14.327,4.926-22.746l5.867,19.811a.806.806,0,0,0,.041.108l.006.012a.8.8,0,0,0,.055.1c.007.011.016.021.024.031a.763.763,0,0,0,.053.064l.032.032c.019.018.039.035.059.051l.037.027a.747.747,0,0,0,.07.042l.037.02a.78.78,0,0,0,.105.041l.01,0a.791.791,0,0,0,.111.024h.012l.01,0a.722.722,0,0,0,.085,0h.028l.051,0,.035,0,.032-.006a.764.764,0,0,0,.082-.02l.035-.011.028-.009c.019-.008.037-.016.055-.025l.019-.01.028-.016c.02-.011.039-.023.057-.036l.01-.007h0l.03-.025c.019-.015.037-.03.054-.047l.022-.024c.014-.015.028-.029.041-.045l.019-.024.016-.023c.006-.009.012-.016.018-.025l19.432-30.623a.781.781,0,0,0-.18-1.035l-2.316-1.8,1.888-.378a.781.781,0,0,0,.626-.711l.938-13.537c5.99,2.624,15.446,7.155,17.892,10.58C3750.889,1131.452,3757.75,1168.224,3755.992,1173.2Z" transform="translate(-3672.751 -1047.186)"/><path class="g" d="M3972.891,1416.28a2.287,2.287,0,0,0,1.326.447,2.123,2.123,0,0,0,.673-.111c1.454-.486,2.362-2.438,2.868-3.989.7-2.14,2-6.124-.46-7.075a2.259,2.259,0,0,0-1.826-.028c-1.1.505-1.747,1.909-2.87,5.073l-.09.251C3971.956,1412.393,3971.026,1414.979,3972.891,1416.28Zm1.09-4.9.092-.258c.694-1.956,1.424-3.889,2.05-4.176.056-.026.2-.093.611.065.715.277.561,2-.461,5.134-.639,1.957-1.39,2.829-1.88,2.993a.634.634,0,0,1-.609-.135C3972.968,1414.43,3973.434,1412.9,3973.981,1411.377Z" transform="translate(-3933.196 -1359.129)"/></g></g><path class="g" d="M3930.96,980.789a.836.836,0,0,0,.8-1.085l-3.172-10.111a.835.835,0,1,0-1.593.5l3.172,10.111A.835.835,0,0,0,3930.96,980.789Z" transform="translate(-3848.056 -943.939)"/></g></svg>