<svg xmlns="http://www.w3.org/2000/svg" xmlns:xlink="http://www.w3.org/1999/xlink" width="171" height="170.282" viewBox="0 0 171 170.282"><defs><style>.a{fill:none;}.b{fill:#ffcc58;}.c{clip-path:url(#a);}.d{fill:#fccea5;}.e{fill:#241e1c;}.f{fill:#4b80a2;}.g{fill:#1a1311;}</style><clipPath id="a"><path class="a" d="M484.01,774.733a84.71,84.71,0,0,0-40.135,10.043,2.462,2.462,0,0,0-2.036-1.005,3.2,3.2,0,0,0-2.422,1.272,3.545,3.545,0,0,0-.556,1.235,4.215,4.215,0,0,0-2.932-1.675,3.309,3.309,0,0,0-2.507,1.156,2.8,2.8,0,0,1-1.036.716c-1.413.323-2.684,2.248-3.865,4.192l-.088.144c-.255.419-.462.792-.638,1.109a6.827,6.827,0,0,1-.5.823,8.6,8.6,0,0,0-2.946,4.374,2.74,2.74,0,0,0,.176,1.86,85.108,85.108,0,0,0,31.24,141.129q3.917,1.378,8,2.377A85.1,85.1,0,1,0,484.01,774.733Z" transform="translate(-398.923 -774.733)"/></clipPath></defs><g transform="translate(0.826 0.108)"><circle class="b" cx="85" cy="85" r="85" transform="translate(-0.826 -0.108)"/><g transform="translate(0 0)"><g class="c"><g transform="translate(25.335 9.031)"><path class="d" d="M615.714,849.285c-1.506-2.382-2.447-3.321-3.826-3.43s-2.058,1.572-3.29,1.854-2.652,2.686-3.426,3.956-1.087,2.1-1.479,2.247a8.094,8.094,0,0,0-2.522,3.885c-.5,1.525,2.571,4.969,4.67,7.484a21.119,21.119,0,0,1,3.216,5.62h0l11.418-3.691-.584-1.562s2.6-5.939,2.042-9.211-.778-6.734-.778-6.734-1.373-4.836-3.221-4.682C615.014,845.266,615.558,848.63,615.714,849.285Z" transform="translate(-600.388 -842.989)"/><g transform="translate(49.082 44.309)"><path class="e" d="M1021.6,1243.944s-5.971-4.824-3.159-10.62c2.186-4.5,6.373-4.992,9.371-10.694,5.231-9.948,3.452-22.285,2.874-31.883s-7.619-9.6-7.619-9.6l-1.868-2.386s-.519-6.848-11.621-5.6-27.929,4.877-31.6,26.147l-1.762,14.734,3.178,7.067Z" transform="translate(-976.216 -1173.01)"/></g><path class="f" d="M753.727,1157.03s-8.659-35.518-9.92-40.639-6.325-6.828-9.722-9.672c-3.05-2.554-10.844-6.905-12.407-7.769a4.559,4.559,0,0,0-.561-.262l-14.408-5.577a4.511,4.511,0,0,1-.46-.208l-11.439-5.955L666.15,1017.9l-15.831,5.263s23.439,70.468,25.146,80.57-.284,51.5-.284,51.5Z" transform="translate(-643.247 -993.582)"/><path class="d" d="M1046.5,1306.544c-.483-3.562-.677-13.454-.677-13.454l.277-1.937s-6.655,7.192-13.392,4.806-12.2-4.045-16.214-1.486l-1.729,1.037s-5.88,1.6-7.047,4.318l.174-.445s-.072.176-.187.476c-.021.052-.042.1-.06.156h0c-.644,1.7-2.275,6.349-1.469,7.883,1.338,2.545,2.269,1.882,2.269,1.882a15.5,15.5,0,0,0-.157,3.6,11.832,11.832,0,0,0,.123,1.222,18.022,18.022,0,0,0,3.961,10.778c.645.772,1.3,1.552,1.99,2.288l-.689,3.5-12.306-6.191s1.44,11.851,16.229,16.782c9.807,3.27,21.048,1.5,21.048,1.5l-11.254-6.43,1.14-5.66c5.269-1.58,9.593-5.545,11.28-8.892l1.577-1.866s.606,1.028,3.282-.52c1.988-1.15,3.09-5.856,3.09-5.856C1046.305,1308.5,1047.148,1311.341,1046.5,1306.544Z" transform="translate(-949.042 -1231.614)"/><path class="g" d="M713.34,868.655a.836.836,0,0,1-.783-.544l-.584-1.562a.835.835,0,0,1,.017-.627c.025-.057,2.489-5.751,1.983-8.737-.511-3.02-.742-6.146-.782-6.728-.617-2.113-1.73-4.048-2.325-3.995a1.548,1.548,0,0,0-1.207.588,3.8,3.8,0,0,0-.268,2.649.836.836,0,1,1-1.626.387,5.441,5.441,0,0,1,.541-4.017,3.2,3.2,0,0,1,2.422-1.272c2.354-.2,3.729,4,4.1,5.286a.838.838,0,0,1,.03.174c0,.034.228,3.461.768,6.649.519,3.065-1.424,8.058-1.966,9.369l.467,1.25a.836.836,0,0,1-.783,1.128Z" transform="translate(-693.147 -842.79)"/><path class="g" d="M604.235,877.964a.836.836,0,0,1-.786-.552,20.439,20.439,0,0,0-3.071-5.368l-.574-.684c-2.84-3.375-4.807-5.9-4.249-7.6a8.6,8.6,0,0,1,2.945-4.374,6.833,6.833,0,0,0,.5-.823c.176-.318.383-.69.638-1.109l.088-.144c1.181-1.944,2.453-3.868,3.865-4.192a2.8,2.8,0,0,0,1.036-.716,3.309,3.309,0,0,1,2.507-1.156c1.816.144,2.971,1.452,4.466,3.816,1.539,2.433,3.284,6.437,1.786,7.494-1.2.846-2.633-.98-3.1-1.58a.836.836,0,0,1,1.316-1.031,8.225,8.225,0,0,0,.661.758,14.164,14.164,0,0,0-2.072-4.747c-1.572-2.484-2.306-2.974-3.185-3.044-.393-.027-.732.257-1.253.729a4.06,4.06,0,0,1-1.785,1.107c-.843.193-2.272,2.545-2.811,3.431l-.088.146c-.242.4-.437.75-.6,1.05-.433.78-.723,1.3-1.244,1.524a8.16,8.16,0,0,0-2.072,3.384c-.311.948,2.56,4.36,3.94,6l.578.689a21.791,21.791,0,0,1,3.361,5.873.836.836,0,0,1-.786,1.118Zm-5.07-17.044h0Zm.067-.031Z" transform="translate(-595.46 -848.408)"/><path class="g" d="M693.13,901.979a2.891,2.891,0,0,1-1.683-.753l-.143-.106a.836.836,0,1,1,.989-1.347l.148.11c.715.529.742.55,1.438.015-.025-.708-1.655-3.034-3.524-5.008a.836.836,0,0,1,1.214-1.149c.969,1.023,4.118,4.506,3.973,6.352a1.441,1.441,0,0,1-.557,1.063A3.145,3.145,0,0,1,693.13,901.979Z" transform="translate(-677.925 -885.204)"/><path class="g" d="M655.259,919.741a2.557,2.557,0,0,1-.734-.107,3.312,3.312,0,0,1-2.027-2.105,8.406,8.406,0,0,0-2.773-3.294.836.836,0,0,1,.919-1.4,10,10,0,0,1,3.4,4.051c.184.445.5,1.005.96,1.142a1.5,1.5,0,0,0,1.14-.271c.082-.715-1.654-3.31-3.715-5.536a.836.836,0,1,1,1.226-1.135c1.029,1.111,4.369,4.892,4.144,6.891a1.529,1.529,0,0,1-.661,1.128A3.435,3.435,0,0,1,655.259,919.741Z" transform="translate(-642.404 -900.31)"/><path class="g" d="M636.906,943.15a3.4,3.4,0,0,1-2.417-1.084c-.63-.725-1.248-1.421-1.77-2v.137a.836.836,0,0,1-.835.829h-.007a.836.836,0,0,1-.829-.843l.018-2.277a.836.836,0,0,1,1.45-.56c.016.017,1.583,1.719,3.235,3.619a1.662,1.662,0,0,0,1.269.5,1.631,1.631,0,0,0-.189-.462.836.836,0,0,1,1.462-.81c.909,1.641.048,2.421-.238,2.62A1.982,1.982,0,0,1,636.906,943.15Z" transform="translate(-626.459 -923.184)"/><g transform="translate(48.086 43.609)"><g transform="translate(9.868 30.485)"><path class="g" d="M1061.494,1431.067a15.287,15.287,0,0,1-4.523-.678c-3.429-1.058-5.573-3.626-7.646-6.11a18.754,18.754,0,0,1-4.156-11.257,12.524,12.524,0,0,1-.122-1.25,32.784,32.784,0,0,1,.963-6.987.836.836,0,1,1,1.623.4,31.833,31.833,0,0,0-.915,6.532,11.252,11.252,0,0,0,.115,1.131.861.861,0,0,1,.008.133,17.333,17.333,0,0,0,3.767,10.229c1.917,2.3,3.9,4.672,6.856,5.583,8.584,2.647,16.934-4.041,19.2-8.529,2.469-4.9,2.848-5.956,2.863-6a.893.893,0,0,1,.067-.147c.035-.06,3.488-6.065,3.67-9.26a.836.836,0,1,1,1.669.095c-.2,3.44-3.45,9.228-3.856,9.938-.132.346-.7,1.723-2.922,6.125C1075.785,1425.709,1069,1431.066,1061.494,1431.067Z" transform="translate(-1045.041 -1404.067)"/></g><path class="g" d="M1253.217,1344.2a.833.833,0,0,1-.671-.338,3.162,3.162,0,0,0-3.837-1.354.836.836,0,0,1-.691-1.522,4.874,4.874,0,0,1,5.87,1.88.836.836,0,0,1-.67,1.334Z" transform="translate(-1211.557 -1318.331)"/><path class="g" d="M1153.141,1311.157a.835.835,0,0,1-.731-.429,3.169,3.169,0,0,0-3.886-1.222.836.836,0,0,1-.477-1.6,4.877,4.877,0,0,1,5.825,2.016.836.836,0,0,1-.732,1.238Z" transform="translate(-1124.382 -1289.585)"/><ellipse class="g" cx="1.66" cy="0.98" rx="1.66" ry="0.98" transform="translate(23.14 26.059) rotate(-71.579)"/><ellipse class="g" cx="1.66" cy="0.98" rx="1.66" ry="0.98" transform="translate(36.145 30.39) rotate(-71.579)"/><path class="g" d="M1176.419,1426.4a2.547,2.547,0,0,1-2.111-1.084,1.631,1.631,0,0,1-.036-1.707.836.836,0,0,1,1.459.816.864.864,0,0,0,.659.3c.093,0,.255,0,.3-.1a.836.836,0,1,1,1.511.713,1.86,1.86,0,0,1-1.634,1.053C1176.518,1426.394,1176.469,1426.4,1176.419,1426.4Z" transform="translate(-1147.551 -1390.229)"/><path class="g" d="M1030.11,1360.671a1.687,1.687,0,0,1-.392-.047c-.825-.2-1.581-.969-2.313-2.36-1.119-2.128,1.2-8.053,1.682-9.22a.836.836,0,0,1,1.547.633c-1.232,3.013-2.251,6.856-1.749,7.809.641,1.218,1.081,1.459,1.2,1.5a.836.836,0,0,1,.817,1.448A1.379,1.379,0,0,1,1030.11,1360.671Zm-.18-1.6h0Zm0,0h0Zm.18-.075h0Z" transform="translate(-1019.549 -1325.199)"/><path class="g" d="M1303.539,1470.573a1.706,1.706,0,0,1-1.56-.748.836.836,0,0,1,1.365-.957c.1.037.685.176,2.219-.711,1.221-.706,2.3-3.64,2.694-5.323a.836.836,0,0,1,1.627.381c-.121.518-1.248,5.095-3.484,6.389A5.92,5.92,0,0,1,1303.539,1470.573Zm-.121-1.6h0Zm0,0h0Z" transform="translate(-1258.889 -1424.212)"/><path class="g" d="M1128.662,1291.637a9.382,9.382,0,0,1-3.152-.538c-6.539-2.315-11.831-3.9-15.486-1.569a.836.836,0,1,1-.9-1.409c4.291-2.738,9.968-1.066,16.942,1.4,6.148,2.176,12.437-4.518,12.5-4.586a.836.836,0,1,1,1.227,1.135C1139.55,1286.336,1134.565,1291.637,1128.662,1291.637Z" transform="translate(-1090.661 -1269.575)"/><path class="g" d="M1010.3,1327.893a.836.836,0,0,1-.791-1.106c1.029-3.013,9.755-7.383,11.493-8.229a.836.836,0,0,1,.731,1.5c-3.784,1.841-10.02,5.441-10.643,7.266A.837.837,0,0,1,1010.3,1327.893Z" transform="translate(-1004.182 -1299.023)"/><path class="g" d="M1339.868,1325.362a.836.836,0,0,1-.808-.624,58,58,0,0,1-2.005-9.873l-.1-.775c-.484-3.569-.676-13.144-.684-13.55a.835.835,0,0,1,.819-.852.827.827,0,0,1,.852.819c0,.1.2,9.884.67,13.358l.105.776a56.314,56.314,0,0,0,1.965,9.673.837.837,0,0,1-.809,1.048Z" transform="translate(-1288.857 -1282.657)"/><path class="g" d="M1295.012,1295.2a.832.832,0,0,1-.524-.185c-.065-.052-6.452-5.315-3.385-11.635a14.408,14.408,0,0,1,4.375-4.991,17.489,17.489,0,0,0,5.008-5.727c4.453-8.467,3.7-18.651,3.043-27.636-.1-1.307-.189-2.579-.263-3.807-.525-8.713-6.53-8.812-6.785-8.812a.836.836,0,1,1,0-1.671c.078,0,7.835.118,8.453,10.383.074,1.221.167,2.486.262,3.785.677,9.209,1.444,19.646-3.231,28.536a19.142,19.142,0,0,1-5.426,6.24,12.906,12.906,0,0,0-3.934,4.43c-2.485,5.119,2.71,9.425,2.932,9.606a.836.836,0,0,1-.527,1.485Z" transform="translate(-1248.791 -1222.598)"/><path class="g" d="M969.328,1210.284a.82.82,0,0,1-.1-.006.835.835,0,0,1-.73-.929l1.762-14.734c3.671-21.257,20.215-25.519,32.341-26.878,4.449-.5,7.843.19,10.086,2.048a6.719,6.719,0,0,1,2.461,4.323.836.836,0,0,1-1.666.131,5.053,5.053,0,0,0-1.894-3.194c-1.883-1.537-4.844-2.091-8.8-1.647-12.57,1.41-27.439,5.577-30.874,25.459l-1.756,14.691A.836.836,0,0,1,969.328,1210.284Z" transform="translate(-968.491 -1167.579)"/></g><path class="g" d="M1139.429,1474.036a5.227,5.227,0,0,1-1.4-.2l-.066-.018c-1.341-.371-2.728-.755-3.485-2.113-.9-1.615-.7-4.282.651-8.917a.836.836,0,0,1,1.076-.555l8.813,3.057a.836.836,0,0,1,.552.915c-.032.212-.823,5.222-3.734,7.108A4.357,4.357,0,0,1,1139.429,1474.036Zm-2.932-9.934c-.963,3.508-1.143,5.733-.555,6.79.4.712,1.158.952,2.47,1.315l.066.018a2.867,2.867,0,0,0,2.45-.314c1.739-1.125,2.562-3.972,2.858-5.282Z" transform="translate(-1064.52 -1380.601)"/><path class="g" d="M1084.651,1575.126a.82.82,0,0,1-.162-.016.836.836,0,0,1-.659-.981l1.082-5.5a.836.836,0,1,1,1.64.323l-1.082,5.5A.836.836,0,0,1,1084.651,1575.126Z" transform="translate(-1020.863 -1472.737)"/><path class="g" d="M1194.115,1603.343a.827.827,0,0,1-.144-.012.836.836,0,0,1-.68-.967l1.14-6.563a.836.836,0,1,1,1.647.286l-1.14,6.563A.836.836,0,0,1,1194.115,1603.343Z" transform="translate(-1116.216 -1496.387)"/><path class="g" d="M671.956,1149.316h-.042a.835.835,0,0,1-.793-.876c.02-.4,1.967-40.322.3-50.219-1.677-9.923-24.881-79.741-25.115-80.445a.836.836,0,0,1,.529-1.057l15.831-5.263a.835.835,0,0,1,1.035.472L692.24,1080.7l11.394,5.932a.836.836,0,0,1-.772,1.483L691.2,1082.04a.836.836,0,0,1-.386-.421l-28.362-68.333-14.3,4.754c2.715,8.178,23.294,70.312,24.914,79.9,1.7,10.075-.192,48.931-.274,50.58A.836.836,0,0,1,671.956,1149.316Z" transform="translate(-639.71 -987.933)"/><path class="g" d="M1230.858,1697.828a.836.836,0,0,1-.81-.632c-.087-.344-8.674-34.483-9.921-39.547-.837-3.4-3.5-5.146-6.312-7a33.655,33.655,0,0,1-3.135-2.235c-3.3-2.76-12.454-7.777-12.546-7.828a.836.836,0,1,1,.8-1.467c.382.209,9.4,5.148,12.817,8.013a32.071,32.071,0,0,0,2.98,2.12c2.823,1.855,6.023,3.958,7.017,7.993,1.246,5.061,9.832,39.195,9.919,39.539a.838.838,0,0,1-.811,1.04Z" transform="translate(-1120.068 -1534.641)"/><path class="g" d="M1321.418,1882.771a.836.836,0,0,1-.836-.836v-29.767a.836.836,0,0,1,1.671,0v29.767A.836.836,0,0,1,1321.418,1882.771Z" transform="translate(-1227.11 -1719.583)"/><path class="g" d="M1022.694,1573.382a46.418,46.418,0,0,1-14.4-2.14c-15.112-5.038-16.719-16.146-16.78-16.616a.836.836,0,0,1,1.657-.217h0c.058.429,1.579,10.556,15.652,15.248,9.494,3.165,19.84,1.7,19.943,1.687a.836.836,0,0,1,.243,1.654A47.076,47.076,0,0,1,1022.694,1573.382Z" transform="translate(-940.455 -1460.302)"/><path class="g" d="M1452.856,1589.238a.834.834,0,0,1-.639-.3l-6.84-8.105a.836.836,0,0,1,1.277-1.078l6.84,8.105a.836.836,0,0,1-.638,1.375Z" transform="translate(-1335.646 -1482.758)"/><path class="g" d="M1492.792,1541.07a.833.833,0,0,1-.438-.125l-8.907-5.5a.836.836,0,0,1,.878-1.422l8.907,5.5a.836.836,0,0,1-.44,1.547Z" transform="translate(-1368.635 -1443.068)"/><path class="g" d="M1403.995,1617.438a.836.836,0,0,1-.817-.664l-2.152-10.217a.836.836,0,1,1,1.635-.344l2.152,10.217a.837.837,0,0,1-.818,1.008Z" transform="translate(-1297.168 -1505.483)"/><path class="g" d="M1040.182,1061.687a.836.836,0,0,1-.8-.586l-3.175-10.119a.836.836,0,1,1,1.594-.5l3.175,10.119a.836.836,0,0,1-.8,1.086Z" transform="translate(-979.361 -1021.457)"/><path class="g" d="M967.956,1099.905a.835.835,0,0,1-.681-.35l-6.089-8.516a.836.836,0,0,1,1.36-.972l6.088,8.516a.836.836,0,0,1-.679,1.322Z" transform="translate(-913.907 -1056.145)"/><path class="g" d="M912.674,1156.456a.831.831,0,0,1-.46-.138l-8.7-5.74a.836.836,0,0,1,.92-1.4l8.7,5.74a.835.835,0,0,1-.461,1.533Z" transform="translate(-863.481 -1107.825)"/></g></g></g></g></svg>