<svg xmlns="http://www.w3.org/2000/svg" width="170" height="179.052" viewBox="0 0 170 179.052"><defs><style>.a{fill:#8ce6d0;}.b{fill:#fccea5;}.c{fill:#723220;}.d{fill:#fff;}.e{fill:#4b80a2;}.f{fill:#1a1311;}</style></defs><g transform="translate(0.231 0.02)"><circle class="a" cx="85" cy="85" r="85" transform="translate(-0.231 -0.02)"/><g transform="translate(36.278 19.952)"><g transform="translate(28.524 4.337)"><path class="b" d="M2400.833,992.694c2.748,0,3.513,2.812,2.3,5.617a6.777,6.777,0,0,1-3.809,3.624l-.879,2.06c-.88,6.136-7.475,15.865-17.295,16.09s-16.414-11.823-17.367-14.443-1.319-3.7-1.319-3.7a6.776,6.776,0,0,1-3.8-3.63c-1.209-2.806-.439-5.613,2.309-5.613,0,0-4.271-31.272,19.527-30.167S2400.833,992.694,2400.833,992.694Z" transform="translate(-2358.107 -962.501)"/><path class="b" d="M2474.894,1373.193v7.859l7.262,3.69,8.192-4.228v-7.321Z" transform="translate(-2459.786 -1320.067)"/></g><path class="c" d="M2386.262,969.089a38.167,38.167,0,0,0,2.527-17.181c-.864-9.533-13.856-12.807-13.856-12.807l-2.949-.9c-.479,0-8.424-5.307-15.068-.829s-16.323,14.444-15.744,19.933,5.583,15.87,6.369,14.733c0,0,.58-1.075.9-1.893,2.909-7.445,14.842-.906,18.93-5.421,1.719-1.9,1.1-6.7,2.257-11.937s4.189-7.326,5.307-7.182l1.627,1.011s6.066,12.711,7.077,17.044a49.07,49.07,0,0,1,1.1,5.433Z" transform="translate(-2314.816 -934.718)"/><path class="d" d="M2446.874,1424.255l-1.69,3.852,7.063,9.483,4.7-8.143Z" transform="translate(-2405.395 -1360.187)"/><path class="d" d="M2542.936,1424.255l1.69,3.852-6.608,9.483-5.155-8.143Z" transform="translate(-2481.733 -1360.187)"/><path class="d" d="M2242.32,1486.526c-5.148-9.916-9.891-16.371-15.792-20.661-5.007-3.64-19.5-9.1-19.5-9.1l-23.929-.387s-11.6,6.17-17.671,10.911-20.8,48.928-21.233,56.734,3.033,11.236,10.4,11.471,21.593-2.076,21.593-2.076l34.08,8.586c12.489-2.388,40.914-12.86,40.91-25.5C2251.177,1506.243,2243.8,1489.375,2242.32,1486.526Z" transform="translate(-2143.311 -1388.158)"/><path class="e" d="M2500.7,1528.83h-5.186l-2.391,39.343-.421,4.89,12.465,4.688.772-3.737Z" transform="translate(-2446.767 -1451.234)"/><path class="e" d="M2505.785,1474.026h5.186l.167-2.449-2.971-5.693-3.669,6.271Z" transform="translate(-2457.037 -1396.43)"/><path class="b" d="M2420.4,1883.776l-9.129-.653-4.467-.9h0a16.594,16.594,0,0,0,3.616-.694c1.487-.535,2.56-.207,2.712-2.444a3.273,3.273,0,0,0-1.25-3.089,5.616,5.616,0,0,0,.888-2.643,2.75,2.75,0,0,0-.153-.941c.806,1.234,2.8-.458,2.837-1.535s-.02-5.291-.7-6.665c-.379-.763-1.848-.77-3.081-.626a2.481,2.481,0,0,0-2.283-2.865c-1.7-.135-9.247,1.579-11.273,2.1s-1.637,1.629-2.954,5.872c-.768,2.476-.429,9.148-.014,14.274-1.579-.615-2.983-.991-3.291-.544-.773,1.124-3.723,3.231-1.756,5.2.843,2.95,0,3.793,1.756,4.636.632,1.826.84,1.79,2.984,2.862s7.2,3.6,12.681,3.039,15.18-6.8,15.18-6.8Zm-8.588-12.6a3.479,3.479,0,0,0,.281-.378l.525,1.611A3.03,3.03,0,0,0,2411.81,1871.18Z" transform="translate(-2356.856 -1740.188)"/><path class="f" d="M2534.493,1014.743c1.1-5,3.865-6.567,4.37-6.523a.849.849,0,0,0,.217-1.683c-1.8-.227-5.051,2.427-6.244,7.841-.387,1.759-.614,3.68-.834,5.537-.367,3.113-.784,6.642-1.914,7.1a.849.849,0,1,0,.635,1.574c2.063-.832,2.48-4.373,2.965-8.473C2533.9,1018.3,2534.124,1016.419,2534.493,1014.743Z" transform="translate(-2478.855 -996.491)"/><path class="f" d="M2616.465,1036.809a.849.849,0,0,0,.825.656.867.867,0,0,0,.194-.022.849.849,0,0,0,.634-1.019l-1.011-4.333c-1.02-4.373-6.888-16.695-7.138-17.217a.848.848,0,0,0-1.531.731c.06.126,6.038,12.677,7.016,16.872Z" transform="translate(-2547.459 -1003.341)"/><path class="f" d="M2596.415,958c.124.032,12.419,3.246,13.219,12.061.826,9.112-2.264,14.536-2.294,14.589a.849.849,0,0,0,1.463.86c.139-.236,3.4-5.909,2.521-15.6-.909-10.018-13.94-13.414-14.494-13.554a.849.849,0,0,0-.415,1.646Z" transform="translate(-2536.506 -952.787)"/><path class="f" d="M2425.762,1048.636a.847.847,0,0,0-.932.756c-.541,5.157-2.2,13.734-4.348,14.8a.849.849,0,1,0,.754,1.521c3.606-1.786,5.033-13.761,5.282-16.143A.849.849,0,0,0,2425.762,1048.636Z" transform="translate(-2383.478 -1033.152)"/><path class="f" d="M2237.361,1026.757c-5.431-10.461-10.23-16.729-16.046-20.957-5.042-3.665-19.1-8.979-19.7-9.2a.842.842,0,0,0-.4-.048l-1.641-3.738a.849.849,0,0,0-1.166-.413l-1.648.849v-3.514c6.317-3.229,10.449-9.953,11.18-14.949.08-.546.152-1.052.219-1.521a7.755,7.755,0,0,0,4.017-3.952,5.583,5.583,0,0,0-.015-5.24,3.572,3.572,0,0,0-3.121-1.569.849.849,0,0,0,0,1.7,1.885,1.885,0,0,1,1.7.8,4,4,0,0,1-.117,3.629,5.959,5.959,0,0,1-2.179,2.554c.389-2.963.4-3.695.4-3.786a.846.846,0,0,0-.842-.846H2208a.852.852,0,0,0-.849.839c0,.049-.028,1.261-.89,7.151-.79,5.4-7.1,15.162-16.858,15.381a12.95,12.95,0,0,1-7.023-2.007.844.844,0,0,0-.279-.172c-5.511-3.476-9.015-10.049-9.638-11.727a34.457,34.457,0,0,1-1.3-7.039.849.849,0,0,0-1.692.136c.007.086.084,1.026.254,2.281a6.025,6.025,0,0,1-2.52-2.765c-.724-1.646-.89-3.173-.422-3.889a1.079,1.079,0,0,1,.719-.475c.895,1.63,1.754,2.77,2.392,2.932a1.1,1.1,0,0,0,.272.035,1.022,1.022,0,0,0,.848-.453c2.582-3.735,3.606-16.533,3.649-17.075a.849.849,0,0,0-1.692-.132c-.26,3.324-1.27,12.111-2.963,15.563a16.089,16.089,0,0,1-1.072-1.8.847.847,0,0,0-.34-.661c-1.549-3.09-3.461-7.924-3.806-11.2-.527-5,8.754-14.679,15.375-19.14,5.245-3.535,11.484-.436,13.535.582a2.443,2.443,0,0,0,1.06.392.849.849,0,0,0,.176-1.679c-.1-.041-.263-.125-.481-.233-2.269-1.127-9.173-4.555-15.238-.469-6.982,4.705-16.738,14.793-16.113,20.726a41.271,41.271,0,0,0,3.616,11.082,2.751,2.751,0,0,0-1.358,1.078c-.808,1.239-.7,3.244.291,5.5a7.728,7.728,0,0,0,4.394,4.1,20.214,20.214,0,0,0,.824,3.2c.656,1.766,4.293,8.563,10.084,12.378v4.186l-1.494-.77a.849.849,0,0,0-1.166.413l-1.573,3.583c-1.791.962-11.908,6.456-17.533,10.852-6.354,4.965-21.129,49.639-21.558,57.356-.228,4.1.577,7.1,2.459,9.154,1.862,2.033,4.728,3.083,8.761,3.212q.553.018,1.151.018c6.237,0,15.826-1.37,19.305-1.9a2.689,2.689,0,0,0,.766,1.933,12.916,12.916,0,0,1,.373,2.124,2.9,2.9,0,0,0,1.457,2.679c.608,1.648,1.072,1.927,2.795,2.778l.5.248c2,1,6.417,3.208,11.457,3.208a16.559,16.559,0,0,0,1.688-.085c4.706-.482,12.159-4.838,14.69-6.39a7.873,7.873,0,0,0,.847,1.566.849.849,0,0,0,.673.332.837.837,0,0,0,.159-.015c10.664-2.039,41.6-12.481,41.6-26.337C2246.313,1046.445,2238.535,1029.017,2237.361,1026.757Zm-37.837-29.848-5.605,8.044-3.976-6.28,6.378-3.288h0l2.066-1.065Zm-4.177,62.91a1.717,1.717,0,0,1-.709.927.878.878,0,0,1-.53.219h0a4,4,0,0,0-.476-.869,4.931,4.931,0,0,0,.754-2.956,3.829,3.829,0,0,0-1.547-2.673,4.965,4.965,0,0,0,.282-.87.842.842,0,0,0,.357-.1,1.63,1.63,0,0,1,1-.188.416.416,0,0,1,.252.248,6.938,6.938,0,0,1,.422,1.928v.011A33.281,33.281,0,0,1,2195.347,1059.819Zm-7.757,10.519-2.343-.471c-1.43-.38-4.049-.49-4.8,1.5a6.48,6.48,0,0,0-.392,1.491c-1.361-.686-2.489-1.2-3.426-1.57-.153-1.313-1.065-9.665.087-13.38.352-1.132.583-2.044.77-2.776.519-2.043.609-2.276,1.583-2.525,2.551-.652,9.562-2.186,11-2.073a1.714,1.714,0,0,1,1.5,2.039,3.475,3.475,0,0,1-.358,1.383l-8.192,1.262a.849.849,0,1,0,.258,1.677l8.271-1.275a2.335,2.335,0,0,1,1.153,1.659,3.31,3.31,0,0,1-.6,2.064l-7.742.886a.849.849,0,0,0,.1,1.692.8.8,0,0,0,.1-.006l7.677-.879a2.19,2.19,0,0,1,.337.632c0,.007,0,.015.008.023a1.909,1.909,0,0,1,.092.616,4.344,4.344,0,0,1-.554,1.855l-7.135.738a.849.849,0,0,0,.174,1.688l7.211-.746a2.68,2.68,0,0,1,.668,2.151c-.078,1.144-.246,1.186-1.18,1.42a9.912,9.912,0,0,0-.973.283A15.331,15.331,0,0,1,2187.589,1070.338Zm8.21-18.158a2.028,2.028,0,0,0-.811-.487,2.9,2.9,0,0,0-1.759.079,3.2,3.2,0,0,0-3.035-2.926,30.528,30.528,0,0,0-5.718.812l.325-3.776,2.344-38.546h3.631l5.135,44.3Zm-5.06-46.542h-3.947l-.475-.69,2.573-4.458,1.945,3.728Zm-8.082-15.663a14.114,14.114,0,0,0,6.492,1.643c.1,0,.2,0,.295,0a16.578,16.578,0,0,0,5.623-1.122v3.63l-6.128,3.159-6.282-3.238Zm-3.166,4.345,1.913.986h0l6.237,3.215-3.315,5.665a.849.849,0,0,0-.1.576l-5.862-7.869Zm-30.581,80.951c-3.552-.114-6.026-.984-7.563-2.662-1.558-1.7-2.217-4.289-2.016-7.914.452-8.145,15.27-51.705,20.908-56.112,5.127-4.007,14.4-9.123,16.9-10.485l6.625,8.895a.85.85,0,0,0,.681.342h.049a.849.849,0,0,0,.686-.423l.193-.334.1.15-2.373,39.03-.367,4.265c-1.945.421-3.614.821-4.1.945a3.51,3.51,0,0,0-1.408.66l-19.418,2.272a.849.849,0,1,0,.2,1.686l18.16-2.125c-.116.375-.222.793-.34,1.258-.181.714-.407,1.6-.745,2.692-1.113,3.586-.52,10.633-.244,13.262-2.326-.667-2.744-.059-2.95.239a8.192,8.192,0,0,1-.631.73,11.443,11.443,0,0,0-1.315,1.628C2167.62,1073.632,2155.434,1075.476,2148.911,1075.271Zm39.263,11.009c-5.233.535-10.124-1.908-12.214-2.953l-.5-.25c-1.591-.786-1.591-.786-2.056-2.13a.848.848,0,0,0-.435-.488c-.7-.335-.713-.468-.825-1.5a14.458,14.458,0,0,0-.482-2.6.851.851,0,0,0-.216-.367c-.836-.837-.345-1.662,1.072-3.2.254-.276.481-.521.663-.756.942-.025,4.365,1.421,7.232,2.919.586,1.08,1.79,1.833,3.681,2.3,3.772.93,6.3,1.717,6.325,1.724a.849.849,0,1,0,.506-1.62c-.026-.008-2.6-.809-6.425-1.752a3.856,3.856,0,0,1-2.607-1.48c-.019-.035-.035-.07-.05-.106,0-.005,0-.01-.006-.016a2.822,2.822,0,0,1,.2-2.033c.341-.9,2.283-.594,2.833-.452l6.982,1.4a.869.869,0,0,0,.107.015l7.859.562a.831.831,0,0,0,.6-.189c.586,2.215,1.295,4.692,2,6.659C2200.269,1081.29,2192.645,1085.822,2188.173,1086.28Zm16.785-4.6a13.061,13.061,0,0,1-.7-1.572.876.876,0,0,0-.065-.172,118.419,118.419,0,0,1-3.332-11.815l29.5-11.273a.849.849,0,0,0-.606-1.585l-30.189,11.536a.849.849,0,0,0-.524.981c.1.439.465,2.026.977,4.034a.834.834,0,0,0-.089-.011l-7.8-.558-.323-.065c.154-.044.307-.083.456-.121,1.3-.327,2.311-.752,2.46-2.951a4.386,4.386,0,0,0-1.026-3.318,6.2,6.2,0,0,0,.649-2.146,2.184,2.184,0,0,0,.36-.069,3.381,3.381,0,0,0,2.341-2.706,38.591,38.591,0,0,0-.184-4.434l.744-3.6a.889.889,0,0,0,.012-.269l-5.23-45.107.047-.688.735,1.162a.849.849,0,0,0,.7.394h.019a.847.847,0,0,0,.7-.364l6.211-8.913a.848.848,0,0,0,.226.127c.144.054,14.442,5.457,19.3,8.988,5.59,4.063,10.237,10.154,15.538,20.366,1.148,2.212,8.761,19.243,8.764,29.587C2244.622,1069.031,2217.106,1079.213,2204.958,1081.685Z" transform="translate(-2137.599 -928.974)"/><path class="f" d="M2571.922,1167.152a.849.849,0,0,0,.487-1.544,5.223,5.223,0,0,0-6.6.073.849.849,0,0,0,1.149,1.249,3.481,3.481,0,0,1,4.482.069A.845.845,0,0,0,2571.922,1167.152Z" transform="translate(-2510.179 -1134.014)"/><path class="f" d="M2452.541,1053.976a.845.845,0,0,0,.486-.154,3.481,3.481,0,0,1,4.481-.069.849.849,0,0,0,1.15-1.248,4.9,4.9,0,0,0-2.681-1.168c3.781-2.418,5.818-14.468,6.043-15.867a.849.849,0,1,0-1.676-.269c-.817,5.083-3.009,13.591-5.41,14.781a.848.848,0,0,0-.384,1.137.837.837,0,0,0,.167.227,6,6,0,0,0-2.663,1.085.849.849,0,0,0,.487,1.544Z" transform="translate(-2411.061 -1020.838)"/><ellipse class="f" cx="1.061" cy="1.798" rx="1.061" ry="1.798" transform="translate(43.149 36.167)"/><ellipse class="f" cx="1.061" cy="1.798" rx="1.061" ry="1.798" transform="translate(57.994 36.167)"/><path class="f" d="M2519.525,1279.147a.848.848,0,0,0-.992.675,1.712,1.712,0,0,0,.6,1.687,2.524,2.524,0,0,0,1.591.524,2.818,2.818,0,0,0,1.042-.2,1.959,1.959,0,0,0,1.283-1.595.848.848,0,1,0-1.685-.2c-.02.168-.267.241-.371.266-.394.089-.75-.044-.8-.166A.848.848,0,0,0,2519.525,1279.147Z" transform="translate(-2469.226 -1233.837)"/><path class="f" d="M2492.417,1324.044c.307,0,.629-.012.964-.038,5.238-.41,5.656-3.032,5.686-3.33a.863.863,0,0,0-.756-.948.836.836,0,0,0-.928.741c0,.016-.343,1.548-4.135,1.845-4.045.317-5.477-1.714-5.547-1.819a.849.849,0,0,0-1.426.921C2486.347,1321.53,2488.008,1324.044,2492.417,1324.044Z" transform="translate(-2441.054 -1269.178)"/></g></g></svg>