<svg xmlns="http://www.w3.org/2000/svg" width="400" height="139" viewBox="0 0 400 139"><defs><style>.a{fill:#f5f5f5;}</style></defs><g transform="translate(-76.945 -23)"><path class="a" d="M279.792,457a9.034,9.034,0,0,1-3.6-.76,8.935,8.935,0,0,1-4.6-11.786l6.237-14.147c4.244-11.929,15.4-21.8,27.529-23.962l91.128-8.546a2.685,2.685,0,0,0,1.457-.657l39.834-35.091a41.4,41.4,0,0,1,27.4-10.336h107a31.519,31.519,0,0,1,31.522,31.445V392.5l44.345,10.517a35.43,35.43,0,0,1,22.795,33.234v11.807a8.962,8.962,0,0,1-17.924,0V436.251a17.65,17.65,0,0,0-10.843-16.357L598.65,409.682a17.181,17.181,0,0,1-12.881-16.521v-10a13.6,13.6,0,0,0-13.6-13.569h-107a23.483,23.483,0,0,0-15.528,5.86l-39.838,35.1a20.547,20.547,0,0,1-11.6,5.043l-90.436,8.451c-4.982.916-11.017,6.493-13.289,12.866L288,451.655A8.975,8.975,0,0,1,279.792,457Z" transform="translate(-193.883 -328.717)"/><path class="a" d="M319.967,432.018a30.694,30.694,0,1,1,30.723-30.69A30.742,30.742,0,0,1,319.967,432.018Zm0-43.476a12.781,12.781,0,1,0,12.794,12.785A12.806,12.806,0,0,0,319.967,388.543Z" transform="translate(-136.494 -270.018)"/><path class="a" d="M370.8,432.018a30.694,30.694,0,1,1,30.719-30.69A30.743,30.743,0,0,1,370.8,432.018Zm0-43.476a12.781,12.781,0,1,0,12.789,12.785A12.806,12.806,0,0,0,370.8,388.543Z" transform="translate(21.864 -270.018)"/><path class="a" d="M392.536,393.826H319.743a8.956,8.956,0,1,1,0-17.913h72.793a8.956,8.956,0,1,1,0,17.913Z" transform="translate(-69.403 -253.523)"/></g></svg>