<svg xmlns="http://www.w3.org/2000/svg" width="33.734" height="27.398" viewBox="0 0 33.734 27.398"><defs><style>.a{fill:#fff;}</style></defs><path class="a" d="M30.267,10.209c.021.3.021.6.021.9,0,9.14-6.957,19.671-19.671,19.671A19.538,19.538,0,0,1,0,27.675a14.3,14.3,0,0,0,1.67.086,13.846,13.846,0,0,0,8.583-2.954,6.926,6.926,0,0,1-6.464-4.795,8.719,8.719,0,0,0,1.306.107,7.312,7.312,0,0,0,1.819-.235A6.915,6.915,0,0,1,1.37,13.1v-.086a6.963,6.963,0,0,0,3.125.878,6.924,6.924,0,0,1-2.14-9.247A19.652,19.652,0,0,0,16.61,11.879a7.8,7.8,0,0,1-.171-1.584A6.92,6.92,0,0,1,28.4,5.564a13.612,13.612,0,0,0,4.388-1.67,6.9,6.9,0,0,1-3.04,3.81,13.86,13.86,0,0,0,3.981-1.07,14.862,14.862,0,0,1-3.468,3.575Z" transform="translate(0 -3.381)"/></svg>