<svg xmlns="http://www.w3.org/2000/svg" width="18" height="20" viewBox="0 0 18 20"><defs><style>.a{fill:#fff;}</style></defs><g transform="translate(-968.017 -534.545)"><path class="a" d="M985.017,560.545a1,1,0,0,1-1-1v-2a3,3,0,0,0-3-3h-8a3,3,0,0,0-3,3v2a1,1,0,0,1-2,0v-2a5.005,5.005,0,0,1,5-5h8a5.006,5.006,0,0,1,5,5v2A1,1,0,0,1,985.017,560.545Z" transform="translate(0 -6)"/><path class="a" d="M979.017,544.545a5,5,0,1,1,5-5A5.005,5.005,0,0,1,979.017,544.545Zm0-8a3,3,0,1,0,3,3A3,3,0,0,0,979.017,536.545Z" transform="translate(-2)"/></g></svg>