<svg xmlns="http://www.w3.org/2000/svg" width="143.1" height="38.275" viewBox="0 0 143.1 38.275"><defs><style>.a{fill:#fff;}</style></defs><g transform="translate(0)"><path class="a" d="M176.664,232.025c.278-.361.6-.753.818-.753.377,0,1.439.8,1.439,1.178,0,.245-.311.425-.671.556-.114,2.4.066,9.617.066,10.827,0,.507-.36.638-.834.638a.5.5,0,0,1-.524-.555v-.7h-6.721v.9c0,.376-.245.589-.786.589a.44.44,0,0,1-.491-.491c0-1.963.2-10.3-.065-12.676a.214.214,0,0,1,.228-.23,4.088,4.088,0,0,1,1.685.72Zm.344,5.283c0-2,.016-3.86,0-4.629h-6.559l-.163.033c-.066.867-.082,3.435-.082,4.6Zm-.033,5.25c0-1.161.016-2.879.033-4.6h-6.8l.034,4.6Z" transform="translate(-166.095 -229.981)"/><path class="a" d="M193.161,236.283c0,.408-.507.522-1,1.128a21.2,21.2,0,0,1-2.714,2.764c-.034.017-.05.033-.082.049.916.672,1.554,1.358,1.554,2.013a.613.613,0,0,1-.572.686.809.809,0,0,1-.655-.409,10.75,10.75,0,0,0-1.34-1.471,16.654,16.654,0,0,0-1.9-1.554c-.474-.328-.261-.7.262-.54a9.767,9.767,0,0,1,2.044.883.366.366,0,0,1,.114-.18,13.085,13.085,0,0,0,2.224-3.091c.148-.343.017-.507-.344-.458-.638.1-2.354.606-2.911.606a1.028,1.028,0,0,1-.753-.508,15.868,15.868,0,0,1-4.432,4.6c-.458.311-.949-.081-.442-.555,2.535-2.355,4.334-4.972,4.759-6.526.114-.409.082-.556-.131-.753a5.858,5.858,0,0,0-.474-.392c-.278-.228-.278-.654.589-.524.8.115,1.766.7,1.766,1.292,0,.311-.392.638-.54.949-.18.392-.424.834-.7,1.308a3.275,3.275,0,0,0,.573.033,22.936,22.936,0,0,0,2.748-.3c.491-.1.671-.277.965-.277S193.161,235.808,193.161,236.283Z" transform="translate(-166.181 -229.986)"/><path class="a" d="M196.683,236.923c-.441.18-.671-.147-.36-.458a8.461,8.461,0,0,0,2.29-2.829.272.272,0,0,1,.376-.147c.539.228,1.357.769,1.308,1.063-.05.229-.278.294-.785.213A8.5,8.5,0,0,1,196.683,236.923Zm.066-4.317c-.213,0-.36-.066-.36-.328,0-.245.147-.327.36-.327h6.264c0-.6-.016-1.292-.066-1.733a.206.206,0,0,1,.229-.245c.277,0,1.749.066,1.749.474,0,.3-.311.425-.785.54v.965h4.007c.36-.539.833-1.178,1.1-1.178.343,0,1.586,1.014,1.586,1.44,0,.228-.278.392-.949.392h-3.631c.163.065.261.147.261.261,0,.245-.278.344-.523.425l-.033,3.385a.988.988,0,0,1-1.079,1.128c-.556,0-.377-.523-1.374-.785-.376-.114-.311-.556.016-.556.262.033.8.081.981.081.311-.016.377-.147.392-.458.017-.735,0-2.551-.066-3.353v-.13h-2.142c.474.1.932.245.932.457,0,.229-.245.344-.686.393-.066,2.06-1.472,4.186-4.432,5.332-.508.2-.671-.327-.278-.539,2.42-1.309,3.565-2.895,3.565-5.528v-.114Zm9.143,6.263c.294-.31.654-.671.833-.671a2.267,2.267,0,0,1,1.26,1.26c0,.245-.376.409-.949.524a9.778,9.778,0,0,1-2.24,2.176,14.2,14.2,0,0,0,5.658,1.259c.491.017.508.392.114.523a1.383,1.383,0,0,0-.7.458.678.678,0,0,1-.786.344,10.867,10.867,0,0,1-5.266-1.946,18.62,18.62,0,0,1-6.592,2.093c-.555.081-.638-.458-.13-.572a20.954,20.954,0,0,0,5.936-2.191,8.126,8.126,0,0,1-1.5-1.963,13.21,13.21,0,0,1-4.351,3.173c-.442.2-.671-.261-.245-.524a11.97,11.97,0,0,0,5.037-5.5.337.337,0,0,1,.409-.2c.588.164,1.341.457,1.325.752,0,.245-.279.344-.753.327a7.439,7.439,0,0,1-.425.671Zm-3.926.769a6.473,6.473,0,0,0,1.881,1.947,7.569,7.569,0,0,0,2.028-2.061h-3.828Zm8.473-4.023a.713.713,0,0,1-.54.916c-.441.1-.735-.327-1.194-.932a11.809,11.809,0,0,0-1.047-1.178c-.294-.294-.163-.686.311-.572C209.163,234.109,210.274,234.8,210.438,235.614Z" transform="translate(-166.275 -229.972)"/><path class="a" d="M217.588,231.068c0,.278-.311.377-.785.294a23.169,23.169,0,0,1-1.374,2.813c.36.164.7.376.7.556-.017.228-.3.343-.655.408-.049.834-.066,3.6-.066,4.122,0,.459.033,4.5.033,5.039,0,.36-.245.555-.752.555a.418.418,0,0,1-.458-.474c0-1.047.1-5.822.033-8.423a15.527,15.527,0,0,1-2.159,2.387c-.344.344-.736.034-.425-.376a18.929,18.929,0,0,0,3.909-7.638c.032-.18.1-.261.277-.245C216.492,230.185,217.588,230.709,217.588,231.068Zm2.781,11.122c0,.932.18,1.079,2.748,1.079,2.208,0,2.584-.245,2.765-.7.147-.425.31-1.161.392-1.472.081-.392.408-.343.441.017.017.278.017.9.033,1.341.033.539.36.524.36.916s-.6,1.03-3.958,1.03c-3.451,0-3.958-.441-3.958-1.93,0-.7.147-9.944-.115-11.743-.033-.245.017-.31.311-.31,1.178,0,1.865.146,1.882.522,0,.327-.458.508-.85.556-.034.458-.034,3.434-.05,6.149a15.234,15.234,0,0,0,4.236-4.2c.115-.13.213-.228.392-.13.622.311,1.424,1.063,1.325,1.407-.066.261-.392.261-.833.049a18.217,18.217,0,0,1-5.12,3.664Z" transform="translate(-166.377 -229.973)"/><path class="a" d="M239.881,240.709a6.773,6.773,0,0,1-5.756,3.468c-1.754,0-3.5-.868-3.5-4.113,0-2.3.344-5.221.377-6.322a1.452,1.452,0,0,0-.776-1.555c-.349-.279-.347-.448.026-.644a1.366,1.366,0,0,1,1.169-.036,1.676,1.676,0,0,1,1.167,1.27,54.443,54.443,0,0,0-.85,7.246c0,2.1.959,2.829,2.5,2.829a6.528,6.528,0,0,0,5.1-2.535c.332-.363.814-.063.548.392Z" transform="translate(-166.498 -229.981)"/><path class="a" d="M244.637,240.44c0,.245-.278.343-.769.311a6.623,6.623,0,0,1-1.374,2.96c-.31.294-.686.131-.507-.278a10.1,10.1,0,0,0,.818-3.681.228.228,0,0,1,.311-.212C243.656,239.671,244.637,240.129,244.637,240.44Zm.114-2.29c-.556.066-1.128.13-1.668.164-.114.375-.3.7-.556.67-.343-.049-.474-.686-.474-1.554,0-.163.066-.2.2-.2.573,0,1.113,0,1.635-.016a18.4,18.4,0,0,0,2.144-4.171.224.224,0,0,1,.327-.114c.7.245,1.423.719,1.39,1.046-.033.245-.458.279-.818.245-.507.786-1.244,1.98-2.012,2.96.671-.016,1.276-.049,1.815-.081a7.4,7.4,0,0,0-.261-.866c-.1-.344.18-.606.507-.344.7.6,1.227,1.341,1.031,1.979a.6.6,0,0,1-.786.458c-.245-.066-.311-.278-.36-.556-.213.05-.441.1-.686.148a.229.229,0,0,1,.032.1c0,.131-.13.229-.392.278v2.535c0,1.766.034,2.96.034,3.434,0,.345-.214.589-.72.589-.311,0-.425-.18-.425-.491,0-.539.049-1.718.049-3.533Zm-2.421-4.481c-.212-.328,0-.655.426-.475a5.327,5.327,0,0,1,.883.54,14.13,14.13,0,0,0,1.259-3.451.213.213,0,0,1,.3-.164c.769.245,1.586.8,1.537,1.128-.033.2-.36.213-.719.2a22.432,22.432,0,0,1-1.88,2.764,1.594,1.594,0,0,1,.392.981.662.662,0,0,1-.687.719c-.425,0-.524-.458-.818-1.063A8.169,8.169,0,0,0,242.33,233.669Zm4.122,6.264c-.1-.3.115-.523.442-.311.687.457,1.341,1.194,1.145,1.865a.619.619,0,0,1-.8.457c-.36-.1-.409-.474-.508-.98A7.77,7.77,0,0,0,246.452,239.934Zm5.643-1.161c0,.212-.131.36-.638.507.016,3.189-1.5,4.727-4.579,5.528-.475.114-.638-.409-.148-.572,2.748-1.014,3.812-2.519,3.549-5.659-.016-.213.033-.278.262-.278C251.064,238.3,252.1,238.445,252.1,238.772Zm3.434-2.094c.213-.278.475-.556.655-.572.311-.017,1.21.833,1.243,1.194.032.294-.343.294-.654.343a12.5,12.5,0,0,0-.933.933c-.311.278-.638.114-.458-.327.066-.213.18-.572.278-.916h-6.133a1.627,1.627,0,0,1,.016.278c-.016.9-.524,1.521-1.177,1.554a.525.525,0,0,1-.6-.491c-.017-.524.555-.622.818-1.276a2.772,2.772,0,0,0,.066-1.161c-.017-.376.409-.459.572-.115a4.458,4.458,0,0,1,.213.556Zm-7.115-3.827c-.213,0-.36-.066-.36-.328,0-.245.147-.327.36-.327h3.32c0-.736-.032-1.407-.066-1.8a.19.19,0,0,1,.214-.229c.278,0,1.668.066,1.668.442,0,.294-.311.425-.8.524V232.2h2.012c.311-.458.7-.981.933-.981.294,0,1.357.916,1.357,1.292,0,.229-.277.344-.8.344h-3.5v1.782h1.505c.311-.458.686-.965.9-.965.31,0,1.308.916,1.308,1.276.016.229-.278.344-.753.344H249.2c-.213,0-.361-.066-.361-.328,0-.244.148-.327.361-.327h2.551v-1.782ZM257,242.207c0,1.1.294,1.047.294,1.423,0,.491-.719.786-2.387.786-1.767,0-2.11-.18-2.11-1.325,0-.507.066-3.14-.033-4.514-.017-.229.049-.3.278-.3.441,0,1.438.148,1.438.475,0,.2-.2.328-.621.392-.033,1.063-.033,2.927-.033,3.664,0,.539.081.622,1.08.622.785,0,1.1-.114,1.243-.344a3.619,3.619,0,0,0,.327-.949C256.577,241.764,257,241.814,257,242.207Z" transform="translate(-166.578 -229.973)"/><path class="a" d="M260.1,231.739c-.142-.223.015-.439.332-.339a2.68,2.68,0,0,1,1.607,1.235,2.191,2.191,0,0,1,.063,1.668c-.3.986-1.283,3.039-1.229,4.591.028.795.376,1.1.687.494.2-.4.477-.967.777-1.62.217-.474.7-.208.545.241a14.656,14.656,0,0,0-.909,3.078c0,.787.686,1.745.238,2.074-.231.17-.541.178-.913-.186a5.335,5.335,0,0,1-1.322-3.589c-.076-2.125.627-3.605.855-5.415.138-1.1-.145-1.3-.732-2.233Zm4.683,12.78c-.438.115-.632-.332-.243-.55A6.876,6.876,0,0,0,267.4,241.3c.581-1.083.818-2.422.776-5.224a9.541,9.541,0,0,1-2.087.142,1.805,1.805,0,0,1-1.695-1.433c-.078-.271.159-.459.383-.313a3.1,3.1,0,0,0,1.481.591,9.366,9.366,0,0,0,1.887-.066,10.575,10.575,0,0,0-.224-1.925,1.612,1.612,0,0,0-.73-1.013c-.259-.2-.32-.325-.214-.5a.6.6,0,0,1,.564-.311c.712,0,1.573.318,1.624.941.019.221.032.942.041,1.633a.571.571,0,0,0,.53.374c.51,0,.795-.516,1.318-.516.636,0,.833.715.029,1.325a5.761,5.761,0,0,1-1.836.846c.07,2.953-.03,4.626-.741,5.88a6.43,6.43,0,0,1-3.729,2.8Z" transform="translate(-166.697 -229.98)"/><path class="a" d="M276.281,232.288a1.535,1.535,0,0,0,.854.4,7.1,7.1,0,0,0,2.026-.581,3.027,3.027,0,0,1,1.03-.392c.786,0,1.865.835,1.865,1.407,0,.474-.577.761-1.194,1.308a31.991,31.991,0,0,0-3.059,3.113c-.129.167-.092.245.105.122a4.209,4.209,0,0,1,2.216-.664c2.089,0,3.755,1.313,3.755,3.349S282,244,279.52,244c-1.764,0-2.8-.713-2.8-1.854a1.518,1.518,0,0,1,1.619-1.429,2.4,2.4,0,0,1,2.4,2,2.755,2.755,0,0,0,1.855-2.569c0-1.582-1.115-2.4-2.664-2.4A3.985,3.985,0,0,0,277,239.116a14.43,14.43,0,0,0-1.237,1.711c-.278.409-.476.526-.733.526-.464,0-.828-.644-.369-1.434a32.376,32.376,0,0,1,2.7-3.136,43.271,43.271,0,0,0,2.787-3.481c.224-.376.171-.628-.156-.628-.648,0-2.258,1.456-3.025,1.456a1.6,1.6,0,0,1-1.276-1.652c.038-.322.24-.465.585-.19Zm2.935,10.695c.084,0,.167,0,.248-.007-.071-.983-.582-1.561-1.234-1.561a.667.667,0,0,0-.753.626C277.477,242.665,278.18,242.986,279.215,242.983Z" transform="translate(-166.793 -229.984)"/><path class="a" d="M289.448,243.115c.441.85.131,1.668-.589,1.668-.36,0-.6-.245-.8-.655a6.618,6.618,0,0,0-.8-1.259,11.3,11.3,0,0,0-1.178-1.128c-.278-.245-.181-.491.213-.458A3.925,3.925,0,0,1,289.448,243.115Z" transform="translate(-166.868 -230.047)"/><path class="a" d="M174.6,260.633v.081c-.016.082-.081.131-.2.18a9.09,9.09,0,0,0,1.488,2.748.439.439,0,0,1,.164-.245,10.719,10.719,0,0,0,2.241-2.224c.1-.13.213-.213.376-.115.491.312,1.227,1,1.129,1.277-.066.245-.344.245-.8.082a10.6,10.6,0,0,1-2.617,1.471.769.769,0,0,1-.262.033,8.072,8.072,0,0,0,4.727,2.535c.54.1.425.376.082.508a1.248,1.248,0,0,0-.7.507c-.2.294-.328.409-.786.261-2.845-.834-4.841-3.271-5.757-6.755H173.6c-.508.458-1.047.9-1.586,1.309.213.114.375.228.375.36,0,.262-.278.376-.7.458V266a27.666,27.666,0,0,0,3.059-.8c.719-.212.85.294.2.622a23.642,23.642,0,0,1-5.757,1.849c-.1.391-.278.752-.556.735-.343-.032-.555-.8-.654-1.684,0-.148.066-.2.2-.2.85-.081,1.653-.179,2.388-.31.017-.933.017-2.06,0-2.879a16.988,16.988,0,0,1-4.006,1.9c-.54.129-.655-.361-.181-.557a17.8,17.8,0,0,0,5.741-4.039H166.62c-.214,0-.361-.066-.361-.327s.147-.328.361-.328h6.263c.017-.507.017-1.113.017-1.733h-4.285c-.213,0-.36-.066-.36-.328,0-.244.147-.327.36-.327H172.9c0-.539-.017-1.1-.033-1.6h-5.217c-.213,0-.361-.066-.361-.327,0-.245.148-.328.361-.328h5.2c-.016-.719-.049-1.308-.1-1.685-.016-.147.082-.229.23-.229.278,0,1.913.049,1.913.474,0,.361-.36.492-.866.606v.833h3.565c.344-.507.785-1.1,1.03-1.1.328,0,1.5.982,1.5,1.374,0,.229-.278.377-.9.377h-5.2v1.6H176.6c.327-.49.752-1.063,1-1.063.327,0,1.488.966,1.488,1.358,0,.229-.278.36-.883.36h-4.17v1.733h4.252c.361-.539.834-1.177,1.1-1.177.344,0,1.586,1.03,1.586,1.438,0,.245-.277.393-.949.393Z" transform="translate(-166.076 -230.127)"/><path class="a" d="M192.562,259.487a7.31,7.31,0,0,0,4.858,2.83c.508.081.328.36.05.458a1.339,1.339,0,0,0-.606.458c-.2.294-.294.391-.769.245a7.328,7.328,0,0,1-4.285-3.991h-3.026a13.418,13.418,0,0,1-6.068,4.678c-.458.163-.654-.311-.229-.54a14.952,14.952,0,0,0,4.89-4.137h-4.416c-.213,0-.361-.065-.361-.327,0-.245.148-.327.361-.327H187.8a10.763,10.763,0,0,0,.819-1.685c-1.244.05-2.438.081-3.386.1-.066.344-.18.639-.441.606-.344-.033-.622-.622-.622-1.455a.164.164,0,0,1,.18-.181c.834.034,1.652.05,2.471.05a10.718,10.718,0,0,0,1.7-2.683.252.252,0,0,1,.328-.179c.6.163,1.521.67,1.5.965-.034.245-.262.327-.769.294a10.945,10.945,0,0,1-1.571,1.587c1.881-.034,3.631-.131,5.087-.23a11.739,11.739,0,0,0-.981-.85.27.27,0,0,1,.278-.458c1.766.392,2.731,1.259,2.943,1.881a.672.672,0,0,1-.376.949c-.3.1-.491-.033-.753-.311-.13-.13-.294-.327-.458-.523-1.226.2-2.748.311-4.252.393.49.2,1,.49,1,.735,0,.279-.377.376-.85.3-.131.245-.278.475-.426.7H195.1c.311-.458.72-.982.949-.982.3,0,1.407.916,1.407,1.292,0,.212-.228.343-.85.343Zm2.863,5.479c-.115.262-.524.147-.9.049a13.828,13.828,0,0,1-9.225,3.173c-.377,0-.491-.507-.033-.572,3.713-.523,6.428-1.325,8.685-3.843.147-.163.213-.131.343-.066C194.819,263.969,195.555,264.672,195.425,264.967Zm-9.863.622a12.37,12.37,0,0,0,6.085-3.321c.2-.2.229-.213.36-.147.622.311,1.178.818,1.178,1.1,0,.311-.556.2-.769.164a13.993,13.993,0,0,1-6.788,2.764C185.252,266.193,185.17,265.7,185.562,265.589Zm.2-2.127a11.1,11.1,0,0,0,4.367-3.075c.131-.163.213-.115.344-.066.36.131,1.21.785,1.128,1.03s-.425.2-.834.115a12.611,12.611,0,0,1-4.874,2.551C185.5,264.117,185.35,263.642,185.759,263.462Z" transform="translate(-166.183 -230.127)"/><path class="a" d="M201.17,260.518c.229-.31.524-.654.7-.654.327,0,1.276.72,1.276,1.079,0,.229-.311.426-.6.54-.016.8-.033,2.585-.016,3.6.588.866,1.291,1.243,2.911,1.424a51.132,51.132,0,0,0,8.194-.082c.474-.049.458.474.049.572-.294.066-.343.214-.474.458-.131.262-.213.345-.572.36a41.621,41.621,0,0,1-7.7-.228,3.539,3.539,0,0,1-2.862-2.028h-.033c-.7.752-1.5,1.538-2.176,2.224-.228.507-.458.507-.67.229a3.663,3.663,0,0,1-.491-.981c-.081-.228-.066-.31.213-.441a15.962,15.962,0,0,0,2.5-1.424c.017-.932.033-3.09.033-3.99h-2.257c-.213,0-.36-.066-.36-.327s.147-.328.36-.328Zm-1.308-5.724c-.228-.327-.05-.7.409-.523,1.063.376,1.995,1.1,2.012,1.946a.72.72,0,0,1-.736.819c-.458,0-.622-.458-.933-1.047A10.6,10.6,0,0,0,199.862,254.794Zm3.107,1.963c-.213,0-.36-.066-.36-.327,0-.245.147-.328.36-.328H208.6a1.212,1.212,0,0,1,.066-.18,7.389,7.389,0,0,0,1-2.306.244.244,0,0,1,.311-.213c.555.163,1.5.686,1.5.981,0,.244-.262.327-.769.294A6.441,6.441,0,0,1,209.4,256.1h2.028c.344-.491.785-1.079,1.03-1.079.311,0,1.488.965,1.488,1.374,0,.228-.277.36-.9.36h-4.023v.033c.033.212-.147.343-.655.425a7.92,7.92,0,0,1-.588,1h2.47c.245-.327.539-.686.735-.686.328,0,1.292.736,1.292,1.112,0,.245-.31.392-.638.508-.033,1.471.017,5.479.017,6.214,0,.508-.245.622-.672.622-.375,0-.474-.293-.474-.555v-.311h-4.727v.361c0,.359-.228.523-.686.523-.279,0-.426-.164-.426-.458.017-1.341.131-5.9-.049-7.654a.186.186,0,0,1,.229-.2,3.881,3.881,0,0,1,1.276.523h.834a8.3,8.3,0,0,0,.294-1.455Zm2.061-2.682c-.229-.392,0-.753.507-.556.818.327,1.619.8,1.571,1.554a.773.773,0,0,1-.884.769c-.458-.033-.555-.475-.735-.9C205.357,254.647,205.178,254.352,205.031,254.074Zm.866,4.791-.1.017c-.017.278-.017.8-.034,1.357h4.776c.017-.572.017-1.062,0-1.374Zm-.131,3.4h4.776v-1.374h-4.776v1.374Zm4.743,2.191.016-1.538h-4.759l.017,1.538Z" transform="translate(-166.291 -230.127)"/><path class="a" d="M222.089,255.258c-.058.141-.153.391-.311.755-.029.39.315.412.648.225.4-.223.685-.46.96-.46h0a.441.441,0,0,1,.5.466c0,.277-.23.548-.65.78a10.879,10.879,0,0,1-2.319.781,28.958,28.958,0,0,1-1.568,2.758c-.083.124-.044.161.081.073a3.028,3.028,0,0,1,1.718-.645,1.4,1.4,0,0,1,1.547,1.064c1.013-1.9,2.406-2.946,3.782-2.946,2.225,0,2.661,2.293.639,3.087-1.558.612-3.117,1.079-4.3,1.593-.012.049-.022.1-.032.148.014.739.03,1.584.03,1.91,0,.512-.233.743-.645.743-.354,0-.545-.266-.545-.743,0-.244.039-.844.073-1.477-.846.53-1.658,1.284-1.658,2.121,0,.8.881,1.025,2.263,1.025,1.146,0,2.5-.365,2.942-.365s.741.183.741.5c0,.375-.254.6-.707.737a11.575,11.575,0,0,1-2.861.316c-2.139,0-3.4-.677-3.4-1.916,0-1.05.931-2.252,2.728-3.347.008-.217.013-.418.013-.585,0-.924-.216-1.156-.842-1.156-.826,0-1.961.923-2.823,2-.461.578-.882,1.2-1.306,1.2a.687.687,0,0,1-.578-.76c0-.529,1.164-1.451,1.6-1.96A15.268,15.268,0,0,0,219.867,258a8.637,8.637,0,0,1-1.871.031,1.815,1.815,0,0,1-1.422-1.687c-.038-.288.223-.4.433-.212a3.027,3.027,0,0,0,1.357.8,6.1,6.1,0,0,0,1.976.006c.624-1.5.512-1.694-.195-2.08-.265-.145-.24-.4.047-.495a2.381,2.381,0,0,1,.729-.108,2.19,2.19,0,0,1,1.11.325C222.215,254.706,222.226,254.928,222.089,255.258Zm1.12,6.442c.79-.336,1.967-.813,3.1-1.37,1.161-.569,1.054-1.479-.022-1.479C225.244,258.851,223.909,260.219,223.208,261.7Z" transform="translate(-166.408 -230.133)"/><path class="a" d="M234.318,254.65c.245-.327.621-.736.752-.736.392,0,1.39.834,1.39,1.128,0,.2-.261.36-.572.474-.081,2.732-.049,7.327-.066,10.942a1.384,1.384,0,0,1-1.407,1.471c-.588,0-.261-.621-1.112-.915-.344-.131-.3-.507.016-.507.131,0,.572.049.834.049.36,0,.507-.163.539-.655.049-.8.049-2.224.033-3.581h-2.388a10.993,10.993,0,0,1-1.782,5.724c-.36.458-.883.164-.622-.327,1.014-2.126,1.407-4.548,1.407-8.162,0-1.537-.049-3.549-.18-5.316-.017-.245.1-.327.311-.294a4.136,4.136,0,0,1,1.357.7Zm.408,7.016v-2.879H232.47l-.033,1.1c-.017.572-.033,1.161-.066,1.782Zm-2.273-6.363c.016,1.047.032,1.914.016,2.83h2.257V255.3Zm9.878,10.4c0,.817.066.933.85.933.736.015.949-.214,1.063-.606.1-.392.164-.867.213-1.144a.246.246,0,0,1,.491.032,8.87,8.87,0,0,0,.115,1.015c.081.441.261.523.261.866,0,.327-.36.982-2.11.982-1.832,0-2.044-.442-2.044-1.538,0-.638.066-7.54-.049-10.909H238.9l-.115.033c.033,1.669.017,3.271-.049,4.973-.1,2.568-.311,5.757-2.585,7.768-.392.377-.818.049-.49-.392,1.407-1.946,1.913-4.137,1.962-7.737.017-1.571,0-3.68-.147-5.561-.016-.245.081-.327.294-.294a4.573,4.573,0,0,1,1.194.556h1.832c.278-.344.606-.72.786-.72.375,0,1.554.933,1.554,1.325,0,.278-.409.425-.8.508Z" transform="translate(-166.498 -230.13)"/><path class="a" d="M256.337,255.958c1.319-.087,2.046.2,2.035.8a.554.554,0,0,1-.577.606c-.236,0-1.04-.139-1.517-.139a3.342,3.342,0,0,0-2.107.734,5.234,5.234,0,0,0-2.021,4.42c-.076,3.6,2.094,3.242,3.316,3.208.569-.017,1.288-.032,1.315.578.019.445-.43.826-1.075.894-2.055.217-4.866-.263-4.642-4.293a6.534,6.534,0,0,1,2.493-5.24c.108-.089.1-.168-.057-.144a25.248,25.248,0,0,0-4.676,1.8,4.492,4.492,0,0,1-1.516.573,1.742,1.742,0,0,1-1.611-1.492.263.263,0,0,1,.42-.273,1.745,1.745,0,0,0,1.058.272,17.331,17.331,0,0,0,2.519-.678,36.859,36.859,0,0,1,6.64-1.62Zm.19,5.446a4.966,4.966,0,0,0-1.128-1.041c-.318-.228-.213-.465.186-.424a3.252,3.252,0,0,1,1.815.651,1.228,1.228,0,0,1,.527,1.051.511.511,0,0,1-.574.5c-.277-.01-.454-.25-.827-.741Zm1.647-1.34a3.569,3.569,0,0,0-1.222-.965c-.352-.185-.262-.442.129-.434a3.238,3.238,0,0,1,1.871.552,1.131,1.131,0,0,1,.532.984.509.509,0,0,1-.539.539c-.284,0-.4-.209-.771-.678Z" transform="translate(-166.602 -230.144)"/><path class="a" d="M270.623,256.251a13.256,13.256,0,0,0,1.129,3.989,10.4,10.4,0,0,0,1.309-3.041c.033-.164.164-.214.327-.164.523.147,1.455.638,1.422.949-.016.245-.294.31-.768.245a14.158,14.158,0,0,1-1.733,3.026c.785,1.209,1.635,1.815,2.142,1.848.131,0,.229-.065.327-.228.114-.2.295-.622.409-.884.164-.359.539-.294.523.1-.016.344-.033.719-.033,1.063,0,.491.163.556.163.917.017.343-.163.523-.588.523-1.047,0-2.486-.686-3.68-2.487a9.79,9.79,0,0,1-2.388,1.734c-.426.23-.687-.164-.311-.474a14.229,14.229,0,0,0,2.176-2.144,15.134,15.134,0,0,1-1.439-4.971h-6.1c.034.882.017,1.537-.016,2.731a9.052,9.052,0,0,1-2.29,6.248c-.392.375-.8.032-.491-.393a10.362,10.362,0,0,0,1.619-5.9c0-1.178-.049-2.585-.114-3.632,0-.212.083-.311.294-.277a4.483,4.483,0,0,1,1.2.572h5.822c-.067-.556-.1-1.144-.131-1.766-.017-.328.065-.361.327-.361.654,0,1.521.2,1.521.556,0,.229-.212.392-.752.475.016.376.033.752.065,1.1H273.5c.311-.491.7-1.014.917-1.014a2.553,2.553,0,0,1,1.307,1.308c0,.245-.277.361-.735.361Zm-6.852,8.357a4.912,4.912,0,0,1,.114,1.652,1.49,1.49,0,0,1-1.521,1.357.571.571,0,0,1-.589-.605c.017-.492.655-.671,1.047-1.161a2.457,2.457,0,0,0,.327-1.21A.313.313,0,0,1,263.771,264.608Zm.589-6.2c-.213,0-.361-.065-.361-.327,0-.245.148-.327.361-.327h2.862c.294-.441.671-.932.883-.932.294,0,1.309.9,1.309,1.243.015.228-.279.343-.77.343Zm1.063,4.776c0,.36-.228.508-.671.508a.389.389,0,0,1-.409-.442c0-.9.067-2.568-.065-3.843a.191.191,0,0,1,.245-.2,3.812,3.812,0,0,1,1.144.475h1.815c.213-.294.475-.589.639-.589.294,0,1.177.686,1.177,1.03,0,.229-.261.36-.523.459-.017.637-.017,1.832-.017,2.175,0,.507-.212.622-.621.622-.375,0-.458-.3-.458-.556v-.131h-2.257Zm6.755,2.323c0,1.407.277,1.194.277,1.635,0,.393-.8.9-3.925.9-3.026,0-3.32-.18-3.32-1.522,0-.49.032-1.406-.033-2.125-.017-.229.05-.3.278-.3.278,0,1.537.1,1.537.474,0,.2-.213.312-.637.376-.017.475-.017,1.014-.017,1.488.017.492.05.589,2.174.589,1.881,0,2.471-.179,2.716-.539a3.276,3.276,0,0,0,.425-1.047C271.769,265.066,272.178,265.1,272.178,265.507ZM267.7,262.04l.017-1.7h-2.191l-.081.016c-.017.278-.017,1.014-.017,1.341v.344Zm.655,2.029c.8.277,1.619.768,1.586,1.5a.691.691,0,0,1-.768.719c-.41-.016-.54-.425-.753-.85a8.182,8.182,0,0,0-.491-.9C267.729,264.231,267.908,263.9,268.351,264.069Zm3.287-9.994c-.213-.278-.1-.589.344-.508.736.164,1.489.475,1.537,1.1a.657.657,0,0,1-.637.753c-.376.032-.508-.311-.736-.655A6.684,6.684,0,0,0,271.638,254.075Zm3.484,12.3a.713.713,0,0,1-.752.785c-.441.017-.639-.376-.933-.949a7.773,7.773,0,0,0-.67-1.129c-.213-.295-.067-.6.36-.491C274.107,264.869,275.106,265.54,275.121,266.374Z" transform="translate(-166.701 -230.127)"/><path class="a" d="M288.781,264.042a6.773,6.773,0,0,1-5.755,3.469c-1.755,0-3.5-.869-3.5-4.115,0-2.3.344-5.22.376-6.321a1.454,1.454,0,0,0-.776-1.555c-.349-.279-.347-.448.026-.644a1.366,1.366,0,0,1,1.169-.036,1.676,1.676,0,0,1,1.167,1.27,54.38,54.38,0,0,0-.851,7.246c0,2.1.96,2.829,2.5,2.829a6.533,6.533,0,0,0,5.1-2.534c.333-.364.814-.064.549.391Zm-4.657-6.719c-.34-.244-.228-.5.2-.454a3.472,3.472,0,0,1,1.941.7,1.314,1.314,0,0,1,.565,1.126.545.545,0,0,1-.614.538c-.3-.01-.487-.268-.885-.792A5.3,5.3,0,0,0,284.124,257.323Zm2.968-.321a3.8,3.8,0,0,0-1.307-1.031c-.375-.2-.28-.475.14-.465a3.46,3.46,0,0,1,2,.591,1.209,1.209,0,0,1,.571,1.054.545.545,0,0,1-.577.577c-.3,0-.427-.223-.826-.726Z" transform="translate(-166.822 -230.136)"/><path class="a" d="M294.626,255.621a1.532,1.532,0,0,0,.854.4,7.1,7.1,0,0,0,2.026-.581,3.028,3.028,0,0,1,1.03-.392c.785,0,1.865.834,1.865,1.407,0,.474-.577.76-1.194,1.308a31.668,31.668,0,0,0-3.059,3.114c-.129.166-.092.243.1.121a4.215,4.215,0,0,1,2.217-.664c2.088,0,3.755,1.312,3.755,3.348s-1.878,3.644-4.361,3.644c-1.763,0-2.794-.714-2.794-1.854a1.518,1.518,0,0,1,1.619-1.429,2.4,2.4,0,0,1,2.4,2,2.754,2.754,0,0,0,1.855-2.569c0-1.582-1.115-2.4-2.664-2.4a3.983,3.983,0,0,0-2.926,1.375,14.163,14.163,0,0,0-1.237,1.712c-.278.408-.476.525-.733.525-.464,0-.828-.643-.369-1.433a32.339,32.339,0,0,1,2.7-3.136,43.059,43.059,0,0,0,2.788-3.481c.224-.375.171-.628-.156-.628-.648,0-2.259,1.456-3.025,1.456a1.6,1.6,0,0,1-1.276-1.652c.038-.322.24-.465.585-.19Zm2.935,10.7c.084,0,.167,0,.248-.008-.071-.983-.582-1.561-1.234-1.561a.666.666,0,0,0-.753.626C295.822,266,296.525,266.32,297.56,266.317Z" transform="translate(-166.914 -230.138)"/><path class="a" d="M305.519,266.165a2.289,2.289,0,1,1,2.289,2.289A2.3,2.3,0,0,1,305.519,266.165Zm3.794,0a1.5,1.5,0,1,0-1.5,1.5A1.5,1.5,0,0,0,309.313,266.165Z" transform="translate(-166.998 -230.196)"/></g></svg>