<svg xmlns="http://www.w3.org/2000/svg" width="297.48" height="38.667" viewBox="0 0 297.48 38.667"><defs><style>.a{fill:#fff;}</style></defs><path class="a" d="M104.26,199.611a13.438,13.438,0,0,1-5.209-4.663,12.236,12.236,0,0,1-1.97-6.867,11.653,11.653,0,0,1,2.068-6.731,14.49,14.49,0,0,1,5.541-4.78,16.286,16.286,0,0,1,7.452-1.756,20.532,20.532,0,0,1,3.3.215q1.268.215,3.648.8a1.539,1.539,0,0,1,.8.468,1.729,1.729,0,0,1,.332.859q.312,3.043.351,4.487a.421.421,0,0,1-.175.409.754.754,0,0,1-.488.176.652.652,0,0,1-.663-.547,12.447,12.447,0,0,0-.956-2.673,4.7,4.7,0,0,0-1.463-1.658,8,8,0,0,0-2.361-.976,12.121,12.121,0,0,0-2.985-.352,9.533,9.533,0,0,0-5.346,1.561,11.071,11.071,0,0,0-3.745,4.116,11.372,11.372,0,0,0-1.366,5.442,14.782,14.782,0,0,0,1.366,6.224,12.449,12.449,0,0,0,3.8,4.838,8.947,8.947,0,0,0,5.56,1.853,8.041,8.041,0,0,0,4.546-1.229,10.368,10.368,0,0,0,3.219-3.648.88.88,0,0,1,.352-.371.865.865,0,0,1,.429-.136.533.533,0,0,1,.39.156.641.641,0,0,1,.156.468,7.5,7.5,0,0,1-.351,1.7,20.344,20.344,0,0,1-.7,2.088,3.882,3.882,0,0,1-.468.7,2.2,2.2,0,0,1-.78.351,15.008,15.008,0,0,1-3.356.839,27.582,27.582,0,0,1-4.019.293A14.94,14.94,0,0,1,104.26,199.611Z" transform="translate(-97.081 -173.138)"/><path class="a" d="M133.23,203.243a7.456,7.456,0,0,1-2.809-2.81,7.9,7.9,0,0,1-1.035-4.019,8.571,8.571,0,0,1,1.151-4.214,9.425,9.425,0,0,1,3.121-3.355,7.656,7.656,0,0,1,4.273-1.288,7.891,7.891,0,0,1,4.058,1.073,8.042,8.042,0,0,1,2.906,2.887,7.5,7.5,0,0,1,1.074,3.882,9.638,9.638,0,0,1-1.015,4.37,7.966,7.966,0,0,1-3,3.258,8.966,8.966,0,0,1-4.8,1.228A7.762,7.762,0,0,1,133.23,203.243Zm8.76-2.3a10.483,10.483,0,0,0,.78-4.6,9.687,9.687,0,0,0-.7-3.628,7.312,7.312,0,0,0-1.951-2.849,4.205,4.205,0,0,0-2.848-1.093,4.945,4.945,0,0,0-1.951.351,3.789,3.789,0,0,0-1.483,1.21,5.266,5.266,0,0,0-.975,2.205,14.668,14.668,0,0,0-.274,2.985,9.733,9.733,0,0,0,.7,3.686,7.26,7.26,0,0,0,1.931,2.81,4.514,4.514,0,0,0,6.77-1.073Z" transform="translate(-104.755 -176.165)"/><path class="a" d="M150.363,203.2a.378.378,0,0,1,.215-.351,4.58,4.58,0,0,1,.683-.273,5.972,5.972,0,0,0,1.268-.527,1.034,1.034,0,0,0,.409-.956v-8.388a5.215,5.215,0,0,0-.293-1.951,1.448,1.448,0,0,0-1.19-.859.448.448,0,0,1-.351-.507.419.419,0,0,1,.312-.469,9.917,9.917,0,0,0,1.678-.565,9.55,9.55,0,0,0,1.443-.878l.858-.586a.291.291,0,0,0,.136-.078.336.336,0,0,1,.215-.078.224.224,0,0,1,.156.078.267.267,0,0,1,.078.2l-.078.82q-.039.312-.078.761c-.026.3-.039.6-.039.917,0,.26.025.416.078.467h.079a8.52,8.52,0,0,1,6.087-2.614,4.213,4.213,0,0,1,2.38.624,4.36,4.36,0,0,1,1.521,2.069h.117a9.517,9.517,0,0,1,6.36-2.692,3.246,3.246,0,0,1,2.849,1.619,6.82,6.82,0,0,1,1.054,3.8V201.1a1.034,1.034,0,0,0,.409.956,5.971,5.971,0,0,0,1.268.527,4.614,4.614,0,0,1,.683.273.379.379,0,0,1,.214.351.347.347,0,0,1-.175.332,1.356,1.356,0,0,1-.6.1,8.79,8.79,0,0,1-1.638-.117q-.781-.078-1.444-.078-.7,0-1.483.078a10.9,10.9,0,0,1-1.756.117q-.78,0-.78-.429a.41.41,0,0,1,.214-.39,3.11,3.11,0,0,1,.683-.234,3.822,3.822,0,0,0,1.249-.488,1.115,1.115,0,0,0,.428-1V192.9a3.929,3.929,0,0,0-.936-2.576,2.774,2.774,0,0,0-2.184-1.131,5.288,5.288,0,0,0-3.4,1.054,3.359,3.359,0,0,0-1.093,2.809V201.1a1.078,1.078,0,0,0,.469,1,4.355,4.355,0,0,0,1.287.488q.9.2.9.624t-.78.429a10.179,10.179,0,0,1-1.717-.117q-.859-.078-1.483-.078-.7,0-1.482.078a10.909,10.909,0,0,1-1.756.117q-.781,0-.781-.429a.347.347,0,0,1,.176-.332,2.761,2.761,0,0,1,.39-.176c.143-.051.254-.091.332-.117a5.887,5.887,0,0,0,1.307-.527,1.034,1.034,0,0,0,.409-.956V192.9a3.929,3.929,0,0,0-.936-2.576,2.775,2.775,0,0,0-2.185-1.131,5.285,5.285,0,0,0-3.394,1.054,3.287,3.287,0,0,0-1.054,2.809V201.1a1.034,1.034,0,0,0,.409.956,5.964,5.964,0,0,0,1.269.527c.078.026.2.066.371.117a1.1,1.1,0,0,1,.39.2.392.392,0,0,1,.137.313q0,.429-.781.429a9.879,9.879,0,0,1-1.677-.117q-.859-.078-1.483-.078t-1.483.078a9.462,9.462,0,0,1-1.677.117Q150.363,203.633,150.363,203.2Z" transform="translate(-109.738 -175.97)"/><path class="a" d="M187.716,203.2a.378.378,0,0,1,.215-.351,4.564,4.564,0,0,1,.682-.273,5.953,5.953,0,0,0,1.268-.527,1.032,1.032,0,0,0,.41-.956v-8.388a5.215,5.215,0,0,0-.293-1.951,1.449,1.449,0,0,0-1.19-.859.449.449,0,0,1-.351-.507.419.419,0,0,1,.313-.469,9.907,9.907,0,0,0,1.677-.565,9.549,9.549,0,0,0,1.444-.878l.858-.586a.3.3,0,0,0,.137-.078.336.336,0,0,1,.214-.078.227.227,0,0,1,.156.078.267.267,0,0,1,.078.2l-.078.82q-.04.312-.078.761c-.026.3-.039.6-.039.917q0,.39.079.467h.078a8.52,8.52,0,0,1,6.087-2.614,4.213,4.213,0,0,1,2.38.624,4.361,4.361,0,0,1,1.522,2.069h.117a9.514,9.514,0,0,1,6.36-2.692,3.247,3.247,0,0,1,2.848,1.619,6.82,6.82,0,0,1,1.054,3.8V201.1a1.032,1.032,0,0,0,.409.956,5.936,5.936,0,0,0,1.268.527,4.6,4.6,0,0,1,.682.273.378.378,0,0,1,.215.351.348.348,0,0,1-.175.332,1.358,1.358,0,0,1-.6.1,8.8,8.8,0,0,1-1.639-.117q-.781-.078-1.443-.078-.7,0-1.483.078a10.909,10.909,0,0,1-1.756.117c-.521,0-.78-.143-.78-.429a.409.409,0,0,1,.214-.39,3.084,3.084,0,0,1,.682-.234,3.815,3.815,0,0,0,1.249-.488,1.115,1.115,0,0,0,.429-1V192.9a3.929,3.929,0,0,0-.936-2.576,2.775,2.775,0,0,0-2.185-1.131,5.284,5.284,0,0,0-3.394,1.054,3.359,3.359,0,0,0-1.093,2.809V201.1a1.08,1.08,0,0,0,.468,1,4.353,4.353,0,0,0,1.288.488q.9.2.9.624c0,.286-.261.429-.78.429a10.166,10.166,0,0,1-1.717-.117q-.859-.078-1.483-.078-.7,0-1.483.078a10.9,10.9,0,0,1-1.755.117q-.781,0-.781-.429a.348.348,0,0,1,.175-.332,2.811,2.811,0,0,1,.39-.176c.143-.051.254-.091.332-.117a5.872,5.872,0,0,0,1.307-.527,1.032,1.032,0,0,0,.41-.956V192.9a3.93,3.93,0,0,0-.937-2.576,2.774,2.774,0,0,0-2.184-1.131,5.284,5.284,0,0,0-3.394,1.054,3.285,3.285,0,0,0-1.054,2.809V201.1a1.033,1.033,0,0,0,.409.956,5.937,5.937,0,0,0,1.268.527c.079.026.2.066.371.117a1.109,1.109,0,0,1,.39.2.394.394,0,0,1,.136.313q0,.429-.78.429a9.883,9.883,0,0,1-1.678-.117q-.858-.078-1.482-.078t-1.483.078a9.472,9.472,0,0,1-1.678.117Q187.716,203.633,187.716,203.2Z" transform="translate(-118.611 -175.97)"/><path class="a" d="M236.23,204.128l.078-1.054a9.285,9.285,0,0,0,.117-1.366v-.234a9.479,9.479,0,0,1-3.044,2.126,8.816,8.816,0,0,1-3.394.644,4.394,4.394,0,0,1-3.219-1.209,4.6,4.6,0,0,1-1.229-3.433v-7.921a2.186,2.186,0,0,0-.39-1.366,2.94,2.94,0,0,0-1.287-.859.62.62,0,0,1-.508-.624.583.583,0,0,1,.586-.624q1.209-.078,1.911-.2t1.951-.429l.313-.039q.429,0,.39.546a24.057,24.057,0,0,0-.234,3V198.7a3.5,3.5,0,0,0,1.015,2.477,3.057,3.057,0,0,0,2.263,1.074,10.444,10.444,0,0,0,1.892-.137,3.265,3.265,0,0,0,1.385-.644,5.891,5.891,0,0,0,1.23-1.19,2.76,2.76,0,0,0,.527-1.736v-7.14a1.556,1.556,0,0,0-.878-1.5,3.8,3.8,0,0,0-1.736-.449q-.82,0-.82-.663,0-.584.82-.585a24.7,24.7,0,0,0,2.672-.176,16.362,16.362,0,0,0,2.126-.448,1.292,1.292,0,0,1,.39-.079.575.575,0,0,1,.351.117.371.371,0,0,1,.156.312l-.078.351q-.079.43-.175,1.229a12.066,12.066,0,0,0-.1,1.463v9.013q0,1.952.7,1.951l.9-.078.9-.039q.586,0,.586.507a.478.478,0,0,1-.137.409.924.924,0,0,1-.409.137,15.957,15.957,0,0,0-2.341.508q-1.016.312-2.224.819a1.84,1.84,0,0,1-.781.234Q236.23,204.44,236.23,204.128Z" transform="translate(-127.077 -176.152)"/><path class="a" d="M247.934,203.2a.375.375,0,0,1,.194-.371,5.344,5.344,0,0,1,.7-.254,3.828,3.828,0,0,0,1.249-.488,1.115,1.115,0,0,0,.429-1v-8.388a5.239,5.239,0,0,0-.274-1.912,1.593,1.593,0,0,0-1.17-.9.489.489,0,0,1-.39-.507q0-.429.351-.469a8.605,8.605,0,0,0,2.048-.78,18.3,18.3,0,0,0,1.854-1.209.841.841,0,0,1,.429-.2c.13,0,.2.091.2.273l-.078.82q-.04.312-.079.761c-.026.3-.039.6-.039.917a.812.812,0,0,0,.078.467,9.924,9.924,0,0,1,2.927-1.97,8.522,8.522,0,0,1,3.356-.643,3.9,3.9,0,0,1,3.141,1.56,5.929,5.929,0,0,1,1.269,3.863V201.1a1.032,1.032,0,0,0,.409.956,5.926,5.926,0,0,0,1.267.527,3.335,3.335,0,0,1,.684.293.455.455,0,0,1,.214.409q0,.351-.781.351a9.482,9.482,0,0,1-1.678-.117q-.779-.078-1.443-.078-.626,0-1.484.078a9.759,9.759,0,0,1-1.717.117c-.519,0-.78-.117-.78-.351a.454.454,0,0,1,.215-.409,3.307,3.307,0,0,1,.683-.293,6,6,0,0,0,1.269-.527,1.035,1.035,0,0,0,.409-.956V192.9a3.627,3.627,0,0,0-.956-2.653,3.548,3.548,0,0,0-2.556-1.015,6.665,6.665,0,0,0-4.331,1.561,1.212,1.212,0,0,0-.312.9v9.4a1.114,1.114,0,0,0,.429,1,3.81,3.81,0,0,0,1.248.488,2.418,2.418,0,0,1,.683.254.421.421,0,0,1,.214.371q0,.429-.78.429a9.882,9.882,0,0,1-1.678-.117q-.859-.078-1.482-.078t-1.483.078a9.478,9.478,0,0,1-1.678.117C248.193,203.633,247.934,203.491,247.934,203.2Z" transform="translate(-132.916 -175.97)"/><path class="a" d="M272.468,200.931a.409.409,0,0,1,.214-.39,3.078,3.078,0,0,1,.683-.234,3.863,3.863,0,0,0,1.287-.527,1.117,1.117,0,0,0,.39-.956v-8.467q0-2.574-1.756-2.848-.39-.038-.39-.507,0-.429.351-.468a9.841,9.841,0,0,0,4.1-1.95,1.042,1.042,0,0,1,.547-.274c.156,0,.234.066.234.2,0,.287-.039.78-.117,1.483q-.039.468-.136,1.736t-.1,2.049v9.052a1.1,1.1,0,0,0,.409.936,3.767,3.767,0,0,0,1.268.547,3.1,3.1,0,0,1,.682.234.41.41,0,0,1,.215.39q0,.429-.781.428a9.594,9.594,0,0,1-1.639-.117q-.859-.078-1.522-.078-.624,0-1.483.078a9.463,9.463,0,0,1-1.677.117C272.727,201.36,272.468,201.217,272.468,200.931Zm2.517-20.387a1.88,1.88,0,0,1-.566-1.385,1.929,1.929,0,0,1,.566-1.424,1.883,1.883,0,0,1,1.385-.566,1.934,1.934,0,0,1,1.99,1.99,1.885,1.885,0,0,1-.566,1.385,1.931,1.931,0,0,1-1.424.566A1.88,1.88,0,0,1,274.985,180.544Z" transform="translate(-138.744 -173.697)"/><path class="a" d="M284.448,202.326a5.055,5.055,0,0,1-1.054-3.453V189.82a.464.464,0,0,0-.253-.468,2.771,2.771,0,0,0-1-.117h-.233a.389.389,0,0,1-.332-.234,1.058,1.058,0,0,1-.137-.546.422.422,0,0,1,.1-.214,1.738,1.738,0,0,1,.176-.215,17.846,17.846,0,0,0,3.472-3.121,2.6,2.6,0,0,1,.313-.332.518.518,0,0,1,.351-.136q.545,0,.507.429l-.2,1.756v.156a.474.474,0,0,0,.233.469,1.638,1.638,0,0,0,.7.117h4.448c.1,0,.2.085.273.254a1.438,1.438,0,0,1,.117.6,2.039,2.039,0,0,1-.117.682c-.078.222-.169.332-.273.332h-3.863a3.21,3.21,0,0,0-1.308.156c-.17.1-.254.416-.254.937v7.686a4.04,4.04,0,0,0,.663,2.478,2.252,2.252,0,0,0,1.912.878,7.642,7.642,0,0,0,1.736-.156,3.033,3.033,0,0,0,1.151-.546l.156-.078c.181,0,.273.181.273.546,0,.156-.234.436-.7.839a7.19,7.19,0,0,1-1.737,1.074,5.108,5.108,0,0,1-2.126.467A3.8,3.8,0,0,1,284.448,202.326Z" transform="translate(-140.877 -175.423)"/><path class="a" d="M295.237,214.55a1.367,1.367,0,0,1-.566-1.209,2.141,2.141,0,0,1,.351-1.249,1.087,1.087,0,0,1,.937-.507,4.062,4.062,0,0,1,.839.117,4.056,4.056,0,0,0,.722.117.841.841,0,0,0,.741-.429,27.428,27.428,0,0,0,1.638-2.985q.9-1.854,1.678-3.96a2.9,2.9,0,0,0,.117-.9,3.393,3.393,0,0,0-.156-1.131l-4.526-11.432a2.946,2.946,0,0,0-1.756-1.912,3.235,3.235,0,0,1-.682-.293.452.452,0,0,1-.215-.409q0-.351.781-.351a7.271,7.271,0,0,1,1.522.117,11.88,11.88,0,0,0,1.327.078,12.228,12.228,0,0,0,1.366-.078,8.506,8.506,0,0,1,1.6-.117,1.24,1.24,0,0,1,.527.117c.168.078.253.182.253.312q0,.273-.371.508a3.127,3.127,0,0,1-.76.351.959.959,0,0,0-.605.409,1.651,1.651,0,0,0-.176.839,3.217,3.217,0,0,0,.313,1.092l3.16,7.8c.052.156.13.234.235.234.078,0,.142-.079.2-.234l2.692-7.141a4.207,4.207,0,0,0,.214-.721,3.588,3.588,0,0,0,.1-.722,2.011,2.011,0,0,0-.2-.995,1.154,1.154,0,0,0-.585-.487q-1.133-.508-1.132-.937c0-.13.085-.234.254-.312a1.234,1.234,0,0,1,.527-.117q.2,0,.9.079,1.406.117,1.873.117a12.687,12.687,0,0,0,1.483-.117,5.081,5.081,0,0,1,.82-.079q.78,0,.78.351a.452.452,0,0,1-.215.409,3.216,3.216,0,0,1-.682.293,3.126,3.126,0,0,0-1.249.936,5.884,5.884,0,0,0-1.053,1.678l-5.307,12.641-.585,1.444q-2.421,5.852-3.161,7.57a2.62,2.62,0,0,1-1.014,1.19,2.841,2.841,0,0,1-1.522.409A2.451,2.451,0,0,1,295.237,214.55Z" transform="translate(-143.945 -176.274)"/><path class="a" d="M327.27,203.243a7.463,7.463,0,0,1-2.81-2.81,7.9,7.9,0,0,1-1.034-4.019,8.571,8.571,0,0,1,1.151-4.214,9.423,9.423,0,0,1,3.121-3.355,7.66,7.66,0,0,1,4.273-1.288,7.887,7.887,0,0,1,4.058,1.073,8.045,8.045,0,0,1,2.907,2.887,7.5,7.5,0,0,1,1.073,3.882,9.647,9.647,0,0,1-1.014,4.37,7.956,7.956,0,0,1-3,3.258,8.962,8.962,0,0,1-4.8,1.228A7.761,7.761,0,0,1,327.27,203.243Zm8.759-2.3a10.47,10.47,0,0,0,.781-4.6,9.686,9.686,0,0,0-.7-3.628,7.32,7.32,0,0,0-1.951-2.849,4.205,4.205,0,0,0-2.848-1.093,4.949,4.949,0,0,0-1.952.351,3.787,3.787,0,0,0-1.482,1.21,5.276,5.276,0,0,0-.976,2.205,14.674,14.674,0,0,0-.273,2.985,9.747,9.747,0,0,0,.7,3.686,7.268,7.268,0,0,0,1.931,2.81,4.514,4.514,0,0,0,6.77-1.073Z" transform="translate(-150.85 -176.165)"/><path class="a" d="M344.4,199.85a.408.408,0,0,1,.215-.39,3.068,3.068,0,0,1,.682-.234,2.606,2.606,0,0,0,1.307-.566,1.57,1.57,0,0,0,.371-1.151v-11q-1.209,0-2.029-.079a.984.984,0,0,1-.331-.272.669.669,0,0,1-.215-.429c0-.079.091-.157.273-.235l2.3-1.17a14.957,14.957,0,0,1,1.347-6.809,8.751,8.751,0,0,1,3.317-3.765,7.815,7.815,0,0,1,3.921-1.132,6.4,6.4,0,0,1,3.2.644,1.924,1.924,0,0,1,1.093,1.7,1.6,1.6,0,0,1-.39,1.151,1.248,1.248,0,0,1-.935.409.8.8,0,0,1-.488-.156,5.156,5.156,0,0,1-.468-.39c-.17-.156-.293-.274-.371-.351a5.677,5.677,0,0,0-1.366-1.014,4.1,4.1,0,0,0-1.912-.39,3.559,3.559,0,0,0-3.064,1.658,8.511,8.511,0,0,0-1.151,4.858v3.433c0,.261.143.39.429.39h4.877a.52.52,0,0,1,.352.136.394.394,0,0,1,.156.293,2.5,2.5,0,0,1-.234,1.132c-.079.209-.2.312-.351.312h-4.488a1.037,1.037,0,0,0-.586.117.458.458,0,0,0-.156.39v10.574a1.353,1.353,0,0,0,.527,1.19,4.729,4.729,0,0,0,2.048.527q.9.117.9.624,0,.429-.78.428a17,17,0,0,1-2.107-.117q-1.25-.078-1.873-.078-.7,0-1.482.078a10.915,10.915,0,0,1-1.756.117C344.66,200.278,344.4,200.136,344.4,199.85Z" transform="translate(-155.832 -172.615)"/><path class="a" d="M373.4,199.6a12.391,12.391,0,0,1-4.761-4.546,12.61,12.61,0,0,1-1.775-6.672,14.807,14.807,0,0,1,1.561-6.711,12.367,12.367,0,0,1,4.565-5.014,14.06,14.06,0,0,1,13.6-.273,12.386,12.386,0,0,1,4.761,4.546,12.613,12.613,0,0,1,1.775,6.672,14.807,14.807,0,0,1-1.561,6.711A12.369,12.369,0,0,1,387,199.326a14.064,14.064,0,0,1-13.6.273Zm13.676-2.653a11.123,11.123,0,0,0,2.3-7.433,18.6,18.6,0,0,0-1.132-6.672,10.677,10.677,0,0,0-3.336-4.7,8.411,8.411,0,0,0-5.365-1.736,8.278,8.278,0,0,0-6.633,2.673,10.9,10.9,0,0,0-2.3,7.355,19.236,19.236,0,0,0,1.112,6.711,10.635,10.635,0,0,0,3.317,4.761,9.345,9.345,0,0,0,12.037-.956Z" transform="translate(-161.169 -173.125)"/><path class="a" d="M430.588,199.518a.455.455,0,0,1,.214.409q0,.351-.781.351a9.871,9.871,0,0,1-1.677-.117q-.859-.078-1.483-.078t-1.482.078a9.477,9.477,0,0,1-1.678.117q-.78,0-.78-.351a.455.455,0,0,1,.214-.409,3.345,3.345,0,0,1,.683-.293,3.514,3.514,0,0,0,1.229-.6,1.359,1.359,0,0,0,.448-1.112v-8.233a3.554,3.554,0,0,0-.467-1.892,2.075,2.075,0,0,0-1.405-.956q-.118-.038-2.107-.039-1.678,0-2.38.039a3.084,3.084,0,0,0-1.308.215.642.642,0,0,0-.253.566v10.3a1.359,1.359,0,0,0,.448,1.112,3.5,3.5,0,0,0,1.229.6,3.328,3.328,0,0,1,.683.293.455.455,0,0,1,.214.409q0,.351-.78.351a9.866,9.866,0,0,1-1.677-.117q-.859-.078-1.484-.078t-1.482.078a9.468,9.468,0,0,1-1.677.117q-.781,0-.781-.351a.454.454,0,0,1,.215-.409,3.317,3.317,0,0,1,.682-.293,3.5,3.5,0,0,0,1.229-.6,1.359,1.359,0,0,0,.448-1.112v-11h-.761a10.735,10.735,0,0,1-1.268-.079h-3.745a3.234,3.234,0,0,0-1.268.156.533.533,0,0,0-.293.508v10.417A1.432,1.432,0,0,0,408,198.64a2.623,2.623,0,0,0,1.189.585,3.122,3.122,0,0,1,.683.234.41.41,0,0,1,.214.39c0,.286-.261.428-.78.428a8.805,8.805,0,0,1-1.639-.117q-.78-.078-1.443-.078-.7,0-1.483.078a10.906,10.906,0,0,1-1.755.117c-.522,0-.781-.143-.781-.428a.374.374,0,0,1,.2-.371,5.311,5.311,0,0,1,.7-.254q1.678-.507,1.677-1.717v-11q-1.21,0-2.029-.079a.985.985,0,0,1-.332-.272.671.671,0,0,1-.214-.429q0-.118.273-.235a6.919,6.919,0,0,0,1.443-.546q.586-.312.859-.468a11.084,11.084,0,0,1,1.366-5.736,8.944,8.944,0,0,1,3.356-3.394,8.017,8.017,0,0,1,3.863-1.093,7.189,7.189,0,0,1,2.595.429,4.168,4.168,0,0,1,1.658,1.053,8.8,8.8,0,0,1,3.219-2.361,8.937,8.937,0,0,1,3.453-.76,9.544,9.544,0,0,1,3.571.6,2.035,2.035,0,0,1,1.5,1.931,1.94,1.94,0,0,1-.566,1.522,2,2,0,0,1-1.385.507.982.982,0,0,1-.663-.234,3.384,3.384,0,0,1-.507-.546,4.518,4.518,0,0,0-.351-.429,5.627,5.627,0,0,0-1.366-1.308,3.5,3.5,0,0,0-1.951-.487,4.179,4.179,0,0,0-2.458.8,5.562,5.562,0,0,0-1.834,2.478,10.857,10.857,0,0,0-.7,4.175v2.146a.6.6,0,0,0,.234.566,2.2,2.2,0,0,0,.742.214,42.967,42.967,0,0,0,4.565.273,9.178,9.178,0,0,0,2.887-.273c.155-.1.344-.22.565-.352s.449-.272.684-.429l.819-.507a.445.445,0,0,1,.2-.039c.181,0,.273.066.273.2q-.039.234-.175,1.7t-.136,4.312v8.077a1.357,1.357,0,0,0,.448,1.112,3.494,3.494,0,0,0,1.229.6A3.348,3.348,0,0,1,430.588,199.518Zm-15.9-14.964.156-.078a14.474,14.474,0,0,1,1.327-6.517,2.952,2.952,0,0,1-.468-.37c-.182-.169-.326-.306-.428-.41a4.552,4.552,0,0,0-3.356-1.327,3.66,3.66,0,0,0-3.238,1.815,10.536,10.536,0,0,0-1.17,5.6v.429q0,.859.975.859Z" transform="translate(-169.563 -172.615)"/><path class="a" d="M442.456,203.3a7.041,7.041,0,0,1-2.5-2.731,8.174,8.174,0,0,1-.917-3.882,9.593,9.593,0,0,1,1.112-4.585,8.873,8.873,0,0,1,2.984-3.317,7.38,7.38,0,0,1,4.136-1.229,7.455,7.455,0,0,1,4.448,1.366.962.962,0,0,1,.468.741,1.512,1.512,0,0,1-.585,1.054,1.677,1.677,0,0,1-1.093.546.671.671,0,0,1-.39-.136c-.131-.091-.273-.188-.429-.293a15.334,15.334,0,0,0-1.99-1.288,3.773,3.773,0,0,0-1.678-.546,3.588,3.588,0,0,0-3.1,1.795,8.254,8.254,0,0,0-1.19,4.643,7.035,7.035,0,0,0,.781,3.3,5.969,5.969,0,0,0,2.146,2.361,5.532,5.532,0,0,0,3,.859,4.69,4.69,0,0,0,1.95-.371,6.221,6.221,0,0,0,1.757-1.307.559.559,0,0,1,.39-.2.374.374,0,0,1,.312.156.636.636,0,0,1,.117.39,2.36,2.36,0,0,1-.585,1.21,5.944,5.944,0,0,1-2.381,1.834,8.09,8.09,0,0,1-3.238.624A6.488,6.488,0,0,1,442.456,203.3Z" transform="translate(-178.314 -176.165)"/><path class="a" d="M459.583,203.243a6.952,6.952,0,0,1-2.516-2.985,10.492,10.492,0,0,1-.9-4.468,8.483,8.483,0,0,1,1.034-4.1,8.133,8.133,0,0,1,2.751-3.024,6.754,6.754,0,0,1,3.746-1.112,5.45,5.45,0,0,1,3.844,1.385,4.6,4.6,0,0,1,1.5,3.531,1.052,1.052,0,0,1-1.171,1.209h-8.232a.882.882,0,0,0-.761.293,2.114,2.114,0,0,0-.215,1.151,7.335,7.335,0,0,0,.8,3.394A6.411,6.411,0,0,0,461.652,201a5.372,5.372,0,0,0,3.024.916,4.848,4.848,0,0,0,3.824-1.756q.233-.312.428-.312c.208,0,.312.13.312.39a2.756,2.756,0,0,1-.7,1.639,5.83,5.83,0,0,1-2.263,1.775,7.04,7.04,0,0,1-2.966.644A6.681,6.681,0,0,1,459.583,203.243Zm3.687-10.769a16.641,16.641,0,0,0,2.888-.2q.312-.039.313-.858a2.406,2.406,0,0,0-1-1.931,3.653,3.653,0,0,0-2.36-.8,3.561,3.561,0,0,0-1.775.526,4.9,4.9,0,0,0-1.5,1.308,2.6,2.6,0,0,0-.585,1.561q0,.39.468.39Z" transform="translate(-182.383 -176.165)"/><path class="a" d="M7.052-21.248a6.659,6.659,0,0,1-2.226-.365A5.2,5.2,0,0,1,3.061-22.63a10.037,10.037,0,0,1-.422-3.07q0-.345.5-.345.422,0,.461.269a4.859,4.859,0,0,0,1.516,2.629,3.536,3.536,0,0,0,2.283.863,2.657,2.657,0,0,0,1.9-.748,2.464,2.464,0,0,0,.787-1.861,2.532,2.532,0,0,0-.672-1.746A12.219,12.219,0,0,0,6.976-28.5a10.8,10.8,0,0,1-2.821-2.283,3.9,3.9,0,0,1-.825-2.475,4.133,4.133,0,0,1,1.343-3.166,5.435,5.435,0,0,1,3.838-1.247,7.24,7.24,0,0,1,1.861.211,3.713,3.713,0,0,1,1.209.518,3.78,3.78,0,0,1,.518,1.324,7.5,7.5,0,0,1,.211,1.708q0,.269-.384.269a1.189,1.189,0,0,1-.461-.1.4.4,0,0,1-.269-.249,5.153,5.153,0,0,0-1.286-1.957A2.678,2.678,0,0,0,8.089-36.6a2.6,2.6,0,0,0-1.727.614,2.047,2.047,0,0,0-.729,1.65,2.418,2.418,0,0,0,.556,1.593,8,8,0,0,0,2.092,1.554A14.54,14.54,0,0,1,11.7-28.713a3.969,3.969,0,0,1,1,2.782,4.184,4.184,0,0,1-1.573,3.377A6.162,6.162,0,0,1,7.052-21.248Z" transform="translate(284.786 49.353)"/></svg>