<svg xmlns="http://www.w3.org/2000/svg" width="270" height="70.001" viewBox="0 0 270 70.001"><defs><style>.a,.d{fill:#1bb91f;}.b,.c,.f{fill:#fff;}.b{font-size:16px;}.b,.d{font-family:YuGo-Bold, YuGothic;font-weight:700;}.d{font-size:14px;}.e{fill:none;stroke:#fff;}.f{opacity:0.5;}.g{fill:#00b900;}</style></defs><g transform="translate(-1380 -530)"><rect class="a" width="270" height="70" rx="4" transform="translate(1380 530)"/><g transform="translate(0 -2)"><g transform="translate(81.194 -101.315)"><text class="b" transform="translate(1494.806 662.315)"><tspan x="-40" y="0">で友達追加</tspan></text><g transform="translate(1416.4 649.632)"><path class="c" d="M.538,0A.547.547,0,0,0,0,.555V13a.547.547,0,0,0,.538.555H2.474A.547.547,0,0,0,3.012,13V.555A.547.547,0,0,0,2.474,0Z" transform="translate(10.542)"/><path class="c" d="M11.482,0H9.443a.561.561,0,0,0-.566.555V7.948l-5.8-7.7A.617.617,0,0,0,3.031.191l0,0C3.016.175,3.005.164,2.994.153L2.983.143a.325.325,0,0,0-.03-.025L2.938.107l-.03-.02L2.892.078,2.862.061,2.844.053,2.811.039,2.793.032,2.759.022,2.74.016,2.707.009l-.024,0-.03,0L2.624,0H.567A.561.561,0,0,0,0,.555V13a.561.561,0,0,0,.567.555H2.6A.561.561,0,0,0,3.171,13V5.608L8.98,13.319a.557.557,0,0,0,.144.137l.006,0,.035.021.016.008.027.013.028.011.017.006.038.013.008,0a.574.574,0,0,0,.145.019h2.038A.56.56,0,0,0,12.048,13V.555A.561.561,0,0,0,11.482,0" transform="translate(15.06)"/><path class="c" d="M8.485,10.438h-5.4V.556A.554.554,0,0,0,2.538,0H.551A.554.554,0,0,0,0,.556V13H0a.555.555,0,0,0,.154.384l.008.008L.17,13.4a.544.544,0,0,0,.381.155H8.485A.553.553,0,0,0,9.036,13v-2a.553.553,0,0,0-.55-.556"/><path class="c" d="M8.485,3.116a.553.553,0,0,0,.55-.556v-2A.553.553,0,0,0,8.485,0H.55A.545.545,0,0,0,.168.157L.162.163.153.173A.555.555,0,0,0,0,.556H0V13H0a.555.555,0,0,0,.154.384l.008.008L.17,13.4a.545.545,0,0,0,.38.155H8.485A.553.553,0,0,0,9.036,13v-2a.553.553,0,0,0-.55-.556H3.09v-2.1h5.4a.553.553,0,0,0,.55-.556v-2a.553.553,0,0,0-.55-.557H3.09v-2.1Z" transform="translate(28.613)"/></g></g><rect class="c" width="140" height="20" rx="10" transform="translate(1486 571)"/><text class="d" transform="translate(1556 586)"><tspan x="-51.31" y="0">@M O V A_公式</tspan></text><line class="e" x2="5" y2="16" transform="translate(1483.5 547.5)"/><line class="e" x1="6" y2="16" transform="translate(1622.5 547.5)"/></g><g transform="translate(8)"><path class="f" d="M68,59H64V14H5V59H0V10A10.011,10.011,0,0,1,10,0H58A10.012,10.012,0,0,1,68,10V59ZM34.5,6A1.5,1.5,0,1,0,36,7.5,1.5,1.5,0,0,0,34.5,6Z" transform="translate(1392 541)"/><g transform="translate(104.4 -23.2)"><path class="c" d="M14.8,0C6.64,0,0,5.349,0,11.924c0,5.894,5.265,10.831,12.377,11.764.482.1,1.138.315,1.3.724a3,3,0,0,1,.048,1.329s-.174,1.037-.211,1.258c-.064.372-.3,1.453,1.282.792s8.523-4.982,11.628-8.531A10.571,10.571,0,0,0,29.6,11.924C29.6,5.349,22.961,0,14.8,0Z" transform="translate(1306.6 587.2)"/><path class="g" d="M.286,0A.291.291,0,0,0,0,.295v6.61A.291.291,0,0,0,.286,7.2H1.314A.29.29,0,0,0,1.6,6.905V.295A.291.291,0,0,0,1.314,0Z" transform="translate(1317 596)"/><path class="g" d="M6.1,0H5.017a.3.3,0,0,0-.3.295V4.222L1.634.131A.328.328,0,0,0,1.61.1l0,0L1.59.081l-.006,0L1.569.063,1.561.057,1.545.047,1.536.041,1.52.032l-.009,0L1.493.021l-.01,0L1.466.012l-.01,0L1.438,0H1.425L1.409,0H.3A.3.3,0,0,0,0,.295v6.61A.3.3,0,0,0,.3,7.2H1.383a.3.3,0,0,0,.3-.295V2.979l3.086,4.1a.3.3,0,0,0,.076.073l0,0,.019.011.009,0,.014.007.015.006.009,0,.02.007h0a.3.3,0,0,0,.077.01H6.1a.3.3,0,0,0,.3-.295V.295A.3.3,0,0,0,6.1,0" transform="translate(1319.4 596)"/><path class="g" d="M4.508,5.545H1.641V.3A.294.294,0,0,0,1.348,0H.293A.294.294,0,0,0,0,.3V6.9H0a.3.3,0,0,0,.082.2l0,0,0,0a.289.289,0,0,0,.2.083H4.508A.294.294,0,0,0,4.8,6.9V5.84a.294.294,0,0,0-.292-.3" transform="translate(1311.4 596)"/><path class="g" d="M4.508,1.655a.294.294,0,0,0,.292-.3V.3A.294.294,0,0,0,4.508,0H.292a.29.29,0,0,0-.2.083l0,0,0,.005A.3.3,0,0,0,0,.3H0V6.9H0a.3.3,0,0,0,.082.2l0,0,0,0a.29.29,0,0,0,.2.083H4.508A.294.294,0,0,0,4.8,6.9V5.84a.294.294,0,0,0-.292-.3H1.641V4.427H4.508a.294.294,0,0,0,.292-.3V3.068a.294.294,0,0,0-.292-.3H1.641V1.655Z" transform="translate(1326.6 596)"/></g></g></g></svg>